<?xml version="1.0" standalone="no"?>
<!DOCTYPE svg PUBLIC "-//W3C//DTD SVG 20010904//EN"
 "http://www.w3.org/TR/2001/REC-SVG-20010904/DTD/svg10.dtd">
<svg version="1.0" xmlns="http://www.w3.org/2000/svg"
 width="1456.000000pt" height="1456.000000pt" viewBox="0 0 1456.000000 1456.000000"
 preserveAspectRatio="xMidYMid meet">
<metadata>
Created by potrace 1.14, written by Peter Selinger 2001-2017
</metadata>
<g transform="translate(0.000000,1456.000000) scale(0.100000,-0.100000)"
fill="#000000" stroke="none">
<path d="M89 10752 c-13 -2 -15 -414 -14 -3440 0 -3050 2 -3437 15 -3434 24 6
120 3 130 -3 6 -3 10 -2 10 2 0 5 26 7 58 6 31 -2 82 -3 112 -3 92 1 133 -1
141 -6 4 -2 9 0 11 5 1 5 23 6 48 2 25 -4 59 -4 76 -1 16 4 39 4 50 0 10 -4
29 -4 41 1 12 5 25 4 28 0 3 -5 20 -6 38 -2 18 5 41 5 52 1 11 -4 24 -5 28 -3
12 7 175 6 186 -1 5 -4 12 -2 16 3 3 6 16 7 28 3 12 -4 45 -5 72 -2 28 3 69 2
93 -1 23 -3 42 -3 42 0 0 3 42 5 92 4 157 -4 171 -4 238 -4 36 0 70 0 75 -1 6
0 34 1 63 3 l52 2 0 1323 0 1324 1420 0 1420 0 0 700 0 700 -57 0 c-32 0 -671
1 -1420 1 l-1363 0 0 672 0 672 1610 0 c1064 0 1611 -3 1613 -10 2 -5 4 -1216
5 -2690 0 -1474 1 -2683 1 -2686 1 -8 91 -17 91 -9 0 5 190 3 230 -3 13 -2 38
-1 55 3 17 4 39 4 50 0 11 -4 30 -4 42 1 12 5 25 4 28 0 3 -5 20 -6 38 -2 18
5 41 5 52 1 11 -4 29 -4 40 0 11 4 29 6 40 4 11 -2 45 -4 75 -4 94 1 133 -1
142 -6 4 -3 8 -1 8 3 0 5 26 7 58 6 31 -2 82 -3 112 -3 92 1 133 -1 141 -6 4
-2 9 0 11 5 1 5 23 6 48 2 25 -4 59 -4 76 -1 16 4 39 4 50 0 10 -4 29 -4 41 1
12 5 25 4 28 0 3 -5 20 -6 38 -2 18 5 41 5 52 1 11 -4 24 -5 29 -2 5 3 34 4
66 3 l56 -1 -2 1342 c-2 739 -5 1444 -8 1568 -18 746 -25 997 -41 1445 -3 77
-7 205 -10 285 -3 80 -8 192 -10 250 -10 197 -13 301 -7 295 3 -3 7 -11 8 -18
2 -7 5 -23 8 -37 9 -43 16 -74 20 -95 5 -22 72 -305 83 -345 3 -14 8 -34 10
-45 2 -11 8 -38 14 -60 6 -22 13 -48 15 -57 2 -10 6 -26 8 -36 2 -9 9 -35 15
-57 6 -22 12 -51 15 -65 2 -14 5 -25 6 -25 1 0 3 -7 5 -15 1 -8 12 -51 23 -95
12 -44 23 -91 26 -105 3 -14 21 -86 41 -160 20 -74 38 -144 40 -155 3 -11 32
-119 65 -240 34 -121 62 -227 64 -235 8 -33 107 -376 113 -390 3 -8 8 -21 10
-27 1 -7 5 -19 6 -25 2 -7 6 -20 9 -28 3 -8 10 -31 16 -50 27 -93 95 -307 102
-325 7 -17 82 -242 85 -255 6 -26 28 -96 35 -109 10 -20 155 -465 152 -469 -1
-1 5 -16 13 -32 9 -17 13 -30 9 -30 -4 0 -2 -6 3 -12 6 -7 14 -26 18 -43 12
-43 12 -45 14 -47 3 -6 123 -368 266 -803 81 -247 158 -480 172 -516 13 -36
25 -75 27 -85 2 -11 11 -36 19 -56 17 -39 43 -49 102 -37 17 3 39 3 50 -1 11
-4 30 -4 42 1 12 5 25 4 28 0 3 -5 20 -6 38 -2 18 5 41 5 52 1 11 -4 24 -5 28
-3 12 7 175 6 186 -1 5 -4 12 -2 16 3 3 6 16 7 28 3 12 -4 45 -5 72 -2 28 3
69 2 93 -1 23 -3 42 -3 42 0 0 6 187 4 230 -2 13 -2 38 -1 55 3 17 4 39 4 50
0 11 -4 30 -4 42 1 12 5 25 4 28 0 3 -5 20 -6 38 -2 18 5 41 5 52 1 11 -4 24
-5 29 -2 5 3 26 4 47 4 l37 -2 23 73 c13 39 24 74 24 77 1 7 95 302 102 320 3
8 7 20 8 25 3 11 53 168 97 300 16 50 32 99 34 110 7 27 10 37 17 55 3 8 33
103 67 210 34 107 81 256 105 330 61 191 129 404 130 410 1 3 16 52 35 110 18
58 35 110 36 115 1 6 9 29 18 53 8 23 16 44 16 47 1 6 3 12 26 85 10 30 19 60
20 65 2 6 21 69 44 140 48 149 52 162 154 505 42 140 78 265 80 277 3 13 7 26
10 31 3 5 7 19 10 33 6 30 45 169 53 189 3 8 8 26 10 40 2 14 11 44 18 67 8
23 16 52 19 65 2 13 9 35 15 51 6 15 8 27 5 27 -2 0 0 8 5 18 5 9 11 31 14 49
3 17 8 37 12 42 3 6 8 20 10 32 2 11 18 75 36 142 17 67 33 129 34 137 2 8 4
17 6 20 1 3 3 10 4 15 2 6 4 12 5 15 1 3 3 12 5 20 1 8 24 98 50 200 44 171
61 242 70 280 5 20 44 178 52 210 3 14 8 34 10 45 3 17 12 57 37 160 4 20 0
-228 -9 -460 -14 -379 -21 -611 -29 -910 -3 -104 -6 -190 -6 -190 -1 0 -7
-236 -15 -595 -15 -679 -26 -3022 -14 -3035 6 -5 33 -6 151 -5 48 1 92 -1 97
-4 5 -4 12 -2 16 3 3 6 16 7 28 3 12 -4 45 -5 72 -2 28 3 69 2 93 -1 23 -3 42
-3 42 0 0 6 187 4 230 -2 13 -2 38 -1 55 3 17 4 39 4 50 0 11 -4 30 -4 42 1
12 5 25 4 28 0 3 -5 20 -6 38 -2 18 5 41 5 52 1 11 -4 29 -4 40 0 11 4 29 6
40 4 11 -2 45 -4 75 -4 94 1 133 -1 142 -6 4 -3 8 -1 8 3 0 5 26 7 58 6 31 -2
82 -3 112 -3 95 1 133 -1 142 -6 4 -3 8 -1 8 4 0 6 17 8 38 5 l38 -5 0 3436
c0 2391 -3 3436 -11 3437 -5 1 -574 2 -1263 3 -827 1 -1256 -2 -1260 -9 -4 -5
-7 -14 -8 -20 -1 -5 -30 -100 -64 -210 -33 -110 -63 -209 -65 -220 -2 -11 -20
-72 -40 -135 -20 -63 -38 -122 -40 -131 -6 -26 -45 -162 -55 -189 -12 -36 -50
-162 -54 -185 -3 -11 -13 -47 -24 -80 -31 -95 -179 -592 -187 -625 -2 -8 -4
-15 -5 -15 -1 0 -3 -7 -5 -15 -2 -8 -11 -40 -20 -70 -9 -30 -17 -59 -18 -65
-2 -5 -6 -16 -10 -22 -5 -7 -5 -13 -1 -13 3 0 1 -7 -6 -15 -7 -9 -10 -18 -7
-22 3 -3 0 -18 -9 -34 -8 -16 -14 -32 -14 -36 -1 -12 -20 -82 -42 -151 -11
-34 -21 -68 -22 -75 -1 -6 -15 -52 -30 -102 -15 -49 -29 -97 -31 -106 -2 -9
-12 -47 -24 -85 -11 -38 -29 -107 -41 -154 -11 -47 -24 -92 -27 -100 -7 -17
-9 -23 -17 -60 -3 -14 -17 -70 -31 -125 -15 -55 -28 -107 -30 -115 -1 -8 -8
-35 -15 -60 -7 -25 -13 -49 -14 -55 -4 -16 -30 -130 -31 -135 -1 -3 -5 -18 -9
-35 -4 -16 -11 -46 -16 -65 -5 -19 -19 -75 -30 -125 -11 -49 -31 -137 -44
-195 -14 -58 -27 -116 -30 -130 -4 -21 -13 -66 -52 -235 -2 -11 -6 -31 -9 -45
-3 -14 -7 -36 -10 -50 -10 -45 -23 -104 -29 -130 -9 -37 -42 -203 -51 -252 -7
-38 -23 -76 -25 -58 -1 8 -3 22 -5 30 -1 8 -10 58 -19 110 -9 52 -18 106 -21
120 -3 14 -10 52 -16 85 -6 33 -12 65 -13 70 -2 6 -7 33 -11 60 -5 28 -10 52
-10 55 -2 6 -16 78 -20 100 -3 16 -52 250 -60 285 -2 11 -13 61 -24 112 -11
51 -34 150 -52 220 -17 70 -32 137 -34 148 -1 11 -3 20 -4 20 -2 0 -5 11 -7
24 -2 14 -12 52 -20 85 -9 34 -18 69 -19 79 -2 9 -6 21 -9 25 -3 5 -7 20 -10
34 -2 13 -16 69 -31 124 -15 54 -28 106 -30 114 -2 8 -4 15 -5 15 -2 0 -7 19
-14 56 -3 14 -12 45 -20 68 -9 22 -13 41 -9 41 3 0 1 6 -5 13 -6 6 -10 14 -10
17 1 3 -4 21 -10 40 -6 19 -13 47 -16 62 -3 15 -7 32 -11 38 -3 5 -8 18 -10
27 -2 10 -20 70 -40 133 -20 63 -38 122 -40 130 -2 8 -12 42 -23 75 -11 33
-34 107 -52 165 -17 58 -35 116 -40 130 -5 14 -23 72 -40 130 -17 58 -35 116
-40 130 -21 60 -89 290 -91 305 0 6 -4 15 -9 20 -4 6 -11 26 -16 45 -10 42 -9
41 -17 60 -3 8 -17 53 -32 100 -14 47 -35 114 -46 149 -11 35 -22 71 -24 80
-5 21 -75 252 -82 271 -8 18 -7 15 -22 70 -7 25 -13 47 -13 50 0 3 -3 10 -7
15 -7 9 -19 48 -22 72 -1 5 -6 19 -11 33 -5 14 -27 82 -48 152 -21 70 -43 135
-48 145 -10 16 -187 17 -3789 18 -2079 0 -3786 -1 -3794 -3z"/>
<path d="M13675 5323 c-99 -14 -234 -67 -318 -125 -36 -26 -173 -161 -200
-198 -9 -13 -23 -37 -30 -52 -6 -15 -15 -28 -19 -28 -5 0 -8 -8 -8 -18 0 -10
-4 -22 -9 -27 -9 -11 -30 -67 -37 -100 -16 -81 -20 -121 -18 -200 2 -116 16
-192 51 -272 9 -21 17 -40 18 -43 0 -3 17 -32 37 -66 52 -85 174 -209 245
-249 15 -8 42 -24 58 -34 48 -29 240 -87 229 -69 -3 4 6 4 19 -1 27 -11 262
-3 262 9 0 1 14 4 30 6 41 7 207 89 241 120 180 161 261 292 293 474 8 49 8
236 -1 288 -26 154 -145 333 -300 450 -123 93 -240 133 -403 136 -60 2 -123 1
-140 -1z"/>
</g>
</svg>
