<svg width="55" height="55" viewBox="0 0 55 55" fill="none" xmlns="http://www.w3.org/2000/svg">
<path d="M0 0V55H55V0H0ZM2.28556 2.34443H52.7022V52.643H2.28556V2.34443ZM15.5467 31.142L13.7256 38.1628C13.6889 38.3508 13.6033 38.426 13.3833 38.426H10.0222C9.80222 38.426 9.76556 38.3383 9.80222 38.075L16.3044 14.7185C16.4144 14.2922 16.4878 13.9537 16.5244 12.7878C16.5244 12.6248 16.5978 12.5496 16.7078 12.5496H21.5111C21.67 12.5496 21.7311 12.5997 21.7678 12.7878L29.0889 38.1126C29.1256 38.3007 29.0889 38.4135 28.9056 38.4135H25.1289C24.9456 38.4135 24.8233 38.3508 24.7867 38.1878L22.8922 31.1295L15.5467 31.142ZM21.9756 27.3182C21.3278 24.723 19.7756 19.0187 19.2133 16.2731H19.1767C18.6878 19.0187 17.4533 23.6699 16.5 27.3182H21.9756ZM34.2589 29.7253C34.3078 32.9097 35.7744 35.041 39.2578 35.041C40.6144 35.041 41.7878 34.853 42.9856 34.3013C43.1444 34.2261 43.2544 34.2763 43.2544 34.4643V37.4231C43.2544 37.6487 43.1811 37.7741 43.0222 37.8869C41.8122 38.5013 40.3089 38.7771 38.4267 38.7771C32.3767 38.7771 30.1156 34.201 30.1156 29.0859C30.1156 23.5446 32.9144 19.0062 37.8278 19.0062C42.8144 19.0062 44.55 23.3189 44.55 26.8042C44.55 27.9325 44.4644 28.8603 44.3667 29.2865C44.3178 29.4746 44.2444 29.5498 44.0611 29.5749C43.6089 29.6626 42.24 29.7379 40.2356 29.7379L34.2589 29.7253ZM38.9156 26.4908C40.0889 26.4908 40.5044 26.4908 40.6144 26.4532C40.6144 26.2902 40.6511 26.1648 40.6511 26.052C40.6511 24.7607 40.04 22.4162 37.6567 22.4162C35.4689 22.4162 34.5156 24.3971 34.2956 26.4908H38.9156Z" fill="white"/>
</svg>
