<?xml version="1.0" encoding="UTF-8"?>
<svg id="Layer_1" data-name="Layer 1" xmlns="http://www.w3.org/2000/svg" viewBox="0 0 179.86 178.13">
  <defs>
    <style>
      .cls-1 {
        fill: #efedb7;
      }

      .cls-2 {
        fill: #dd9023;
      }

      .cls-3 {
        fill: #ab4c51;
      }
    </style>
  </defs>
  <path class="cls-3" d="M89.86,113.97c14.29,0,25.88-11.28,25.88-25.2s-11.58-25.2-25.88-25.2-25.88,11.28-25.88,25.2,11.59,25.2,25.88,25.2Z"/>
  <path class="cls-2" d="M62.21,60.34c-1.65-3.83-3.3-8.63-4.4-14.26-1.85-9.53-1.37-17.73-.53-23.48-9.62-7.17-23.2-6.25-31.71,2.06-8.66,8.46-9.63,22.23-2.16,31.87,4.87-1.48,14.15-3.56,25.23-1.22,5.67,1.19,10.24,3.21,13.55,5.03Z"/>
  <path class="cls-2" d="M62.19,116.95c-1.64,3.85-3.28,8.66-4.36,14.31-1.83,9.56-1.33,17.78-.49,23.54-9.59,7.22-23.12,6.36-31.61-1.93-8.65-8.45-9.64-22.25-2.2-31.94,4.85,1.47,14.11,3.51,25.16,1.12,5.65-1.22,10.2-3.26,13.51-5.1h0Z"/>
  <path class="cls-1" d="M88.81,49.81c1.71-3.73,4.13-8.09,7.55-12.63,5.79-7.66,12.19-12.79,17.01-16.03C112.11,9.54,102.17,.52,90.22,.02c-12.18-.51-23.03,7.99-25.06,19.72,4.42,2.46,12.29,7.67,18.13,17.09,2.99,4.82,4.61,9.4,5.53,12.97h0Z"/>
  <path class="cls-1" d="M88.5,127.73c-1.48,3.87-3.62,8.42-6.76,13.2-5.31,8.08-11.38,13.64-15.99,17.19,1.98,11.66,12.47,20.2,24.43,20,12.19-.2,22.5-9.41,23.8-21.39-4.56-2.23-12.74-7.03-19.15-16.22-3.28-4.7-5.18-9.24-6.32-12.79h0Z"/>
  <path class="cls-1" d="M51.32,90.03c-3.93,1.46-8.57,3.58-13.43,6.67-8.22,5.22-13.87,11.18-17.48,15.71C8.54,110.53-.18,100.32,0,88.64c.18-11.91,9.55-22.02,21.74-23.35,2.28,4.45,7.18,12.41,16.55,18.63,4.79,3.18,9.41,5.02,13.03,6.11h0Z"/>
  <path class="cls-2" d="M117.33,60.27c1.71-3.8,3.45-8.56,4.65-14.17,2.03-9.49,1.74-17.7,1.04-23.46,9.65-6.98,23.01-5.81,31.21,2.65,8.36,8.62,9.01,22.41,1.43,31.9-4.77-1.57-13.87-3.82-24.85-1.69-5.62,1.09-10.16,3.02-13.47,4.77Z"/>
  <path class="cls-2" d="M118.42,115.92c1.65,3.83,3.31,8.62,4.42,14.27,1.88,9.54,1.47,17.77,.68,23.53,9.52,7.13,22.87,6.13,31.18-2.25,8.46-8.53,9.33-22.34,1.9-31.96-4.78,1.51-13.89,3.65-24.82,1.37-5.59-1.17-10.09-3.16-13.37-4.96h0Z"/>
  <path class="cls-1" d="M129.12,90.24c3.87,1.5,8.42,3.67,13.19,6.8,8.06,5.31,13.57,11.32,17.09,15.88,11.76-1.76,20.5-11.87,20.47-23.55-.03-11.91-9.17-22.12-21.21-23.57-2.31,4.42-7.25,12.34-16.59,18.46-4.78,3.13-9.37,4.92-12.96,5.98h0Z"/>
</svg>