<svg width="196" height="181" viewBox="0 0 196 181" fill="none" xmlns="http://www.w3.org/2000/svg">
<path d="M97.4256 112.035C111.717 112.035 123.302 100.753 123.302 86.8366C123.302 72.9202 111.717 61.6387 97.4256 61.6387C83.1346 61.6387 71.5494 72.9202 71.5494 86.8366C71.5494 100.753 83.1346 112.035 97.4256 112.035Z" fill="#AB4C51"/>
<path d="M63.7547 58.1238C62.52 54.1368 61.3804 49.198 60.89 43.479C60.0591 33.8101 61.4035 25.7017 62.8402 20.0741C54.0268 11.9314 40.4274 11.4084 31.0948 18.7708C21.5862 26.2704 19.1657 39.8635 25.5846 50.2384C30.5813 49.2781 40.0264 48.1948 50.8073 51.6903C56.3232 53.4766 60.6477 55.9631 63.7547 58.1238Z" fill="#DD9023"/>
<path d="M65.6952 119.068C63.8403 122.819 61.9279 127.524 60.5245 133.109C58.1548 142.545 58.1778 150.786 58.6897 156.582C48.7078 163.247 35.2433 161.608 27.2399 152.846C19.087 143.917 18.8828 130.08 26.8661 120.828C31.6284 122.57 40.7505 125.137 51.9201 123.387C57.6343 122.49 62.2902 120.716 65.6952 119.071V119.068Z" fill="#DD9023"/>
<path d="M96.3822 49.9193C98.0947 46.1919 100.51 41.8247 103.935 37.2927C109.724 29.6284 116.126 24.5012 120.948 21.26C119.681 9.6504 109.736 0.628173 97.7852 0.130819C85.6092 -0.374917 74.7524 8.11921 72.7245 19.8517C77.1448 22.3162 85.0133 27.5188 90.854 36.9434C93.8423 41.7661 95.4651 46.3484 96.3851 49.9165L96.3822 49.9193Z" fill="#EFEDB7"/>
<path d="M95.4753 129.615C93.9943 133.482 91.8537 138.036 88.7181 142.816C83.4129 150.897 77.3383 156.455 72.7245 160.008C74.706 171.664 85.1919 180.203 97.1502 180.008C109.337 179.807 119.647 170.595 120.948 158.619C116.384 156.387 108.209 151.587 101.799 142.403C98.5184 137.702 96.6151 133.168 95.4782 129.615H95.4753Z" fill="#EFEDB7"/>
<path d="M51.551 86.8163C47.5177 87.9749 42.7353 89.7297 37.6505 92.4368C29.0567 97.0146 22.9694 102.525 19.0225 106.761C7.32599 103.98 -0.585024 93.1405 0.486678 81.5038C1.57855 69.6468 11.6877 60.2736 23.9489 59.8809C25.8849 64.4897 30.163 72.8061 39.0247 79.7236C43.5593 83.2643 48.0276 85.4486 51.5538 86.8163H51.551Z" fill="#EFEDB7"/>
<path d="M130.947 58.1238C132.164 54.1368 133.287 49.198 133.771 43.479C134.59 33.8101 133.265 25.7017 131.848 20.0741C140.537 11.9314 153.945 11.4084 163.146 18.7708C172.521 26.2704 174.907 39.8635 168.579 50.2384C163.653 49.2781 154.341 48.1948 143.712 51.6903C138.273 53.4766 134.01 55.9631 130.947 58.1238Z" fill="#DD9023"/>
<path d="M126.241 119.068C128.072 122.819 129.959 127.524 131.344 133.109C133.682 142.545 133.66 150.786 133.155 156.582C143.005 163.247 156.292 161.608 164.191 152.846C172.236 143.917 172.438 130.08 164.559 120.828C159.86 122.57 150.858 125.137 139.835 123.387C134.196 122.49 129.601 120.716 126.241 119.071V119.068Z" fill="#DD9023"/>
<path d="M145.063 86.8163C149.05 87.9749 153.777 89.7297 158.804 92.4368C167.299 97.0146 173.316 102.525 177.218 106.761C188.78 103.98 196.6 93.1405 195.54 81.5038C194.461 69.6468 184.468 60.2736 172.348 59.8809C170.434 64.4897 166.205 72.806 157.445 79.7236C152.963 83.2643 148.546 85.4486 145.06 86.8163H145.063Z" fill="#EFEDB7"/>
</svg>
