<svg width="55" height="55" viewBox="0 0 55 55" fill="none" xmlns="http://www.w3.org/2000/svg">
<g clip-path="url(#clip0_191_4)">
<path d="M28.3389 55H26.7086C26.6323 54.9721 26.557 54.9656 26.4807 54.9656C25.6102 54.9237 24.7462 54.855 23.8896 54.7378C22.2873 54.5305 20.7117 54.178 19.1781 53.6881C16.5462 52.8457 14.0937 51.637 11.8207 50.0618C9.71325 48.5974 7.84864 46.8707 6.22477 44.8819C4.31073 42.5471 2.81904 39.9706 1.76153 37.1394C0.814722 34.6252 0.248354 32.0218 0.0753272 29.3346C0.068879 29.1896 0.047385 29.0445 -0.000976562 28.8995V26.0608C0.047385 25.9361 0.0678043 25.8051 0.0753272 25.674C0.109718 25.0315 0.178499 24.3889 0.262325 23.7539C0.67716 20.6875 1.58851 17.7789 2.99099 15.023C3.95822 13.1233 5.13287 11.3559 6.51386 9.72484C7.88196 8.10887 9.41556 6.66481 11.1147 5.40126C13.8852 3.34261 16.932 1.85772 20.2614 0.94659C21.8778 0.504991 23.5296 0.21489 25.2008 0.0762859C25.4974 0.0483502 25.8091 0.0698392 26.1057 0H28.8967C29.1105 0.0623181 29.3319 0.0279357 29.5458 0.0483502C30.6517 0.145051 31.75 0.283655 32.8408 0.49747C36.2745 1.17437 39.4588 2.45942 42.4024 4.35797C44.6894 5.82889 46.7066 7.60388 48.4681 9.66897C49.8845 11.3268 51.086 13.1298 52.0672 15.0767C53.2279 17.3771 54.0565 19.7871 54.5272 22.3217C54.7755 23.6615 54.9625 25.0153 54.9689 26.3831C54.9689 26.4734 54.9893 26.5701 54.9969 26.6592V28.2892C54.9689 28.3923 54.9689 28.503 54.9625 28.6137C54.9625 28.8758 54.9625 29.1391 54.9421 29.4012C54.8174 31.0731 54.5552 32.7234 54.1403 34.3534C53.3461 37.4134 52.0672 40.2521 50.2918 42.8695C48.9721 44.8174 47.432 46.572 45.6631 48.1257C43.9017 49.6729 41.9736 50.9783 39.8801 52.0345C37.4685 53.2497 34.9333 54.0932 32.2734 54.5552C31.2513 54.7346 30.2218 54.8517 29.1858 54.914C28.9128 54.9452 28.6226 54.9388 28.3389 55V55ZM17.2233 41.8767C17.6789 41.8906 18.1905 41.8348 18.7021 41.7252C20.2152 41.3932 21.5006 40.7034 22.4882 39.4807C23.089 38.735 23.5941 37.927 24.0293 37.0771C24.5409 36.0757 24.9686 35.0324 25.3416 33.9762C25.7972 32.6987 26.1841 31.3933 26.4818 30.0738C26.6473 29.3346 26.4614 28.8715 25.6457 28.6169C24.6097 28.2924 23.5662 28.0023 22.5022 27.767C20.7408 27.3802 18.9654 27.132 17.1545 27.1932C16.6429 27.2137 16.1324 27.2695 15.6273 27.3587C14.1625 27.6144 12.9191 28.2913 11.9035 29.3615C10.1689 31.1848 9.47896 33.3606 9.9067 35.8404C10.5214 39.384 13.6585 41.9046 17.2233 41.8767V41.8767ZM20.1454 16.4735C20.125 16.9913 20.2217 17.5576 20.3807 18.1238C20.6849 19.2015 21.1889 20.1889 21.7832 21.1215C23.1373 23.2425 24.844 25.0583 26.6957 26.7441C26.8472 26.8827 27.0278 26.9998 27.2212 27.089C27.4147 27.1857 27.6081 27.1857 27.808 27.103C28.0014 27.0203 28.1745 26.9031 28.3196 26.7506C28.9622 26.1156 29.5974 25.4795 30.2057 24.823C31.0622 23.8904 31.8779 22.9309 32.6173 21.9016C33.2879 20.969 33.8887 19.988 34.3304 18.9243C34.7721 17.867 34.987 16.7765 34.8419 15.63C34.6001 13.7379 33.7919 12.1348 32.3475 10.8777C30.6398 9.39391 28.6506 8.79974 26.412 9.13067C22.7709 9.67005 20.1314 12.8751 20.1454 16.4735V16.4735ZM38.094 41.8358C38.2734 41.8294 38.598 41.8358 38.9226 41.7875C41.1053 41.463 42.8323 40.4058 44.0489 38.5555C45.0021 37.0986 45.389 35.4815 45.2096 33.7485C45.0441 32.125 44.3874 30.7024 43.2751 29.5076C42.3079 28.4718 41.1536 27.753 39.7587 27.449C38.9913 27.2835 38.2111 27.2137 37.4309 27.2008C36.5056 27.1868 35.5867 27.2695 34.6743 27.3942C32.8505 27.6499 31.0676 28.085 29.3137 28.6373C29.1342 28.6921 28.9687 28.7759 28.8236 28.893C28.6366 29.0445 28.5334 29.2315 28.5334 29.4732C28.5334 29.6806 28.5538 29.888 28.6022 30.0953C28.7129 30.5101 28.8096 30.9237 28.9203 31.332C29.4319 33.1973 30.0531 35.0206 30.9031 36.7612C31.3932 37.7626 31.9606 38.7092 32.6861 39.5591C33.2385 40.2016 33.8811 40.7259 34.6485 41.0923C35.6974 41.5941 36.7882 41.8638 38.094 41.8358Z" fill="white"/>
</g>
<defs>
<clipPath id="clip0_191_4">
<rect width="55" height="55" fill="white"/>
</clipPath>
</defs>
</svg>
