<svg width="49" height="49" viewBox="0 0 49 49" fill="none" xmlns="http://www.w3.org/2000/svg">
<path d="M24.5 32.6667L32.6667 24.5L29.8084 21.6417L26.5417 24.9083V16.3333H22.4584V24.9083L19.1917 21.6417L16.3334 24.5L24.5 32.6667ZM24.5 44.9167C21.6757 44.9167 19.0216 44.3804 16.5375 43.3078C14.0535 42.2366 11.8927 40.7823 10.0552 38.9448C8.21775 37.1073 6.7634 34.9465 5.69221 32.4625C4.61965 29.9785 4.08337 27.3243 4.08337 24.5C4.08337 21.6757 4.61965 19.0215 5.69221 16.5375C6.7634 14.0535 8.21775 11.8927 10.0552 10.0552C11.8927 8.21771 14.0535 6.76268 16.5375 5.69012C19.0216 4.61893 21.6757 4.08333 24.5 4.08333C27.3243 4.08333 29.9785 4.61893 32.4625 5.69012C34.9466 6.76268 37.1073 8.21771 38.9448 10.0552C40.7823 11.8927 42.2367 14.0535 43.3079 16.5375C44.3804 19.0215 44.9167 21.6757 44.9167 24.5C44.9167 27.3243 44.3804 29.9785 43.3079 32.4625C42.2367 34.9465 40.7823 37.1073 38.9448 38.9448C37.1073 40.7823 34.9466 42.2366 32.4625 43.3078C29.9785 44.3804 27.3243 44.9167 24.5 44.9167ZM24.5 40.8333C29.0598 40.8333 32.9219 39.251 36.0865 36.0865C39.2511 32.9219 40.8334 29.0597 40.8334 24.5C40.8334 19.9403 39.2511 16.0781 36.0865 12.9135C32.9219 9.74896 29.0598 8.16667 24.5 8.16667C19.9403 8.16667 16.0782 9.74896 12.9136 12.9135C9.749 16.0781 8.16671 19.9403 8.16671 24.5C8.16671 29.0597 9.749 32.9219 12.9136 36.0865C16.0782 39.251 19.9403 40.8333 24.5 40.8333Z" fill="#A54646"/>
</svg>
