<svg width="40" height="55" viewBox="0 0 40 55" fill="none" xmlns="http://www.w3.org/2000/svg">
<path d="M9.81544 0H19.5915V17.8245H9.81544C-3.07663 17.3651 -3.20682 0.482533 9.81544 0ZM9.81544 36.4114H19.5915V18.5869H9.81544C-3.20682 19.0694 -3.07663 35.952 9.81544 36.4114ZM30.2039 0H20.4278V17.8245H30.2039C43.2697 17.1871 43.1069 0.363851 30.2039 0ZM19.5915 46.0861V37.1738H9.81544C1.8379 37.1738 -3.20682 45.7005 2.34136 51.8249C7.63118 57.8951 19.5915 54.8687 19.5915 46.0861ZM40 27.4992C40 20.65 31.8108 16.346 25.2949 19.7706C18.7789 23.1952 18.7789 31.8031 25.2949 35.2277C31.8108 38.6523 40 34.3483 40 27.4992Z" fill="white"/>
</svg>
