<svg width="182" height="87" viewBox="0 0 182 87" fill="none" xmlns="http://www.w3.org/2000/svg">
<path d="M64.4 0.0799975V18.56H23.36V35.36H58.88V52.88H23.36V86H0.92V0.0799975H64.4ZM159.834 0.0799975V86H138.594V66.68C138.594 54.28 138.954 38.92 139.674 20.6C136.634 33.48 133.554 44.84 130.434 54.68L120.474 86H103.314L93.2338 55.52C90.2738 46.64 87.1538 35 83.8738 20.6C84.5938 36.92 84.9538 51.32 84.9538 63.8V86H63.7138V0.0799975H95.8738L105.114 29.96C107.834 38.68 110.154 48.64 112.074 59.84C114.714 47.04 117.154 36.92 119.394 29.48L128.154 0.0799975H159.834Z" fill="black"/>
<path d="M172.271 67.88C174.911 67.88 177.111 68.8 178.871 70.64C180.711 72.4 181.631 74.56 181.631 77.12C181.631 79.76 180.711 82 178.871 83.84C177.111 85.68 174.911 86.6 172.271 86.6C169.711 86.6 167.511 85.68 165.671 83.84C163.831 82 162.911 79.76 162.911 77.12C162.911 74.56 163.831 72.4 165.671 70.64C167.511 68.8 169.711 67.88 172.271 67.88Z" fill="#902B2B"/>
</svg>
