<svg width="63" height="57" viewBox="0 0 63 57" fill="none" xmlns="http://www.w3.org/2000/svg">
<g clip-path="url(#clip0_142_25)">
<path d="M31.3246 0.376465C14.4609 0.376465 0.786133 13.2173 0.786133 29.0577C0.786133 41.7301 9.53632 52.481 21.6703 56.2735C23.1964 56.539 23.7569 55.6513 23.7569 54.8937C23.7569 54.2099 23.7284 51.9504 23.7154 49.5538C15.2194 51.2888 13.4267 46.1698 13.4267 46.1698C12.0375 42.8546 10.0359 41.9733 10.0359 41.9733C7.26531 40.1931 10.2448 40.2295 10.2448 40.2295C13.3115 40.432 14.9262 43.1853 14.9262 43.1853C17.6499 47.5701 22.0703 46.3023 23.8129 45.5696C24.0869 43.7157 24.8785 42.4506 25.7517 41.7344C18.9689 41.0089 11.8382 38.5496 11.8382 27.5599C11.8382 24.4287 13.0312 21.8699 14.9849 19.8614C14.6678 19.1389 13.6226 16.2219 15.2807 12.2712C15.2807 12.2712 17.8451 11.5003 23.681 15.2112C26.1168 14.5755 28.7293 14.257 31.3246 14.2462C33.9199 14.257 36.5344 14.5755 38.975 15.2112C44.8039 11.5003 47.3647 12.2712 47.3647 12.2712C49.0269 16.2219 47.9812 19.1389 47.6641 19.8614C49.6221 21.8699 50.8069 24.4284 50.8069 27.5599C50.8069 38.5757 43.6629 41.0015 36.8628 41.7114C37.958 42.6015 38.934 44.3471 38.934 47.0228C38.934 50.8603 38.8986 53.949 38.8986 54.8937C38.8986 55.657 39.4483 56.5513 40.9964 56.2697C53.1237 52.4729 61.8629 41.7258 61.8629 29.0577C61.8629 13.2173 48.1901 0.376465 31.3246 0.376465Z" fill="#F4F4F4"/>
<path d="M12.2242 41.2337C12.1571 41.3761 11.9181 41.4188 11.7009 41.3212C11.4793 41.2276 11.3548 41.0332 11.4266 40.8902C11.4925 40.7435 11.7315 40.7026 11.9526 40.8011C12.1746 40.8945 12.3011 41.0906 12.2242 41.2337M13.7264 42.4924C13.5808 42.6193 13.296 42.5604 13.1027 42.36C12.9029 42.16 12.8656 41.8928 13.0134 41.7639C13.1635 41.6372 13.4397 41.6964 13.6399 41.8966C13.8397 42.0988 13.8785 42.3645 13.7261 42.4927M14.757 44.103C14.5697 44.2252 14.2636 44.1107 14.0746 43.8556C13.8876 43.6007 13.8876 43.2948 14.0787 43.1722C14.2684 43.0496 14.5697 43.1599 14.7613 43.4129C14.9481 43.6723 14.9481 43.9782 14.7567 44.1033M16.4996 45.9685C16.3322 46.1417 15.9758 46.0954 15.7148 45.8587C15.448 45.6275 15.3735 45.2993 15.5414 45.1259C15.7107 44.9522 16.0692 45.001 16.3322 45.2356C16.5974 45.4664 16.6783 45.7971 16.4999 45.9685M18.752 46.5983C18.6785 46.8228 18.335 46.9249 17.9891 46.8296C17.6438 46.7313 17.4177 46.4681 17.4874 46.2411C17.5592 46.0151 17.9041 45.9087 18.2526 46.0108C18.5975 46.1086 18.8241 46.3698 18.7522 46.5983M21.3157 46.8653C21.3243 47.102 21.0309 47.2981 20.6678 47.3024C20.3026 47.3098 20.0072 47.1184 20.0034 46.8858C20.0034 46.6469 20.2901 46.4526 20.6551 46.4469C21.0182 46.4402 21.3157 46.6303 21.3157 46.8653M23.8339 46.7747C23.8775 47.0055 23.625 47.2426 23.2646 47.3055C22.9101 47.3663 22.582 47.2239 22.5367 46.9951C22.4926 46.7585 22.7499 46.5216 23.1036 46.4602C23.4648 46.4013 23.7879 46.5401 23.8339 46.7747" fill="#F4F4F4"/>
</g>
<defs>
<clipPath id="clip0_142_25">
<rect width="61.3141" height="56.0189" fill="white" transform="translate(0.786133 0.376465)"/>
</clipPath>
</defs>
</svg>
