<svg width="816" height="172" viewBox="0 0 816 172" fill="none" xmlns="http://www.w3.org/2000/svg">
<path d="M4.89663 54.087L0 6.77026H53.8208L48.9241 54.0688L26.8682 59.3383L4.89663 54.087Z" fill="#F4F4F4"/>
<path d="M26.9102 55.3231L44.7238 51.0711L48.9239 10.6411H26.9102V55.3231Z" fill="#F4F4F4"/>
<path d="M26.91 28.1939H17.982L17.37 22.252H26.91V16.4556H26.8889H10.0039L10.1728 18.0001L11.819 33.9904H26.91V28.1939Z" fill="#9E3333"/>
<path d="M26.9101 43.2572L26.889 43.2754L19.3752 41.5128L18.8897 36.8975H15.2384H12.1357L13.0644 46.001L26.889 49.3081L26.9101 49.2899V43.2572Z" fill="#9E3333"/>
<path d="M26.8896 28.1938V33.9903H35.1844L34.4035 41.513L26.8896 43.2574V49.3083L40.6931 46.0012L40.7986 45.02L42.3816 29.7565L42.5504 28.1938H40.7353H26.8896Z" fill="#9E3333"/>
<path d="M26.8896 16.4556V20.0534V22.2339V22.252H43.1414H43.1625L43.3103 20.9437L43.6058 18.0001L43.7746 16.4556H26.8896Z" fill="#9E3333"/>
<path d="M123.341 53.9014L119.127 6.77026L169.452 6.86498L164.996 53.9014L144.48 59.3383L123.341 53.9014Z" fill="#F4F4F4"/>
<path d="M144.479 54.7868V11.2593L165.204 11.3224L161.508 50.2665L144.479 54.7868Z" fill="#F4F4F4"/>
<path d="M160.057 16.8225H128.177L129.04 22.512H144.169L129.282 28.3601L130.146 33.8602H152.079L151.284 41.5413L143.858 42.8692L137.123 41.2888L136.605 36.9264H130.422L131.251 45.9988L144.514 49.3811L157.225 45.6828L158.849 27.949H145.412L160.057 22.3857L160.057 16.8225Z" fill="#9E3333"/>
<g clip-path="url(#clip0_156_25)">
<path d="M239.251 53.0518L235.189 5.34082L283.692 5.4367L279.397 53.0518L259.624 58.5555L239.251 53.0518Z" fill="#F4F4F4"/>
<path d="M259.624 53.9478V9.88477L279.598 9.94868L276.036 49.3717L259.624 53.9478Z" fill="#F4F4F4"/>
<path d="M257.485 15.1167H252.204V44.444L248.097 43.692V39.7441L243.208 38.9921V47.8279L257.485 51.3998V15.1167ZM261.446 15.1167H276.064L275.086 20.7378H267.027V29.9619H275.086L274.109 48.5798L261.446 51.3998V45.5719L270.002 42.752L270.496 35.0442L261.446 36.3038V15.1167Z" fill="#9E3333"/>
</g>
<path d="M394.018 24.2294L393.996 24.2205C393.983 24.2158 393.97 24.2117 393.959 24.2009C393.922 24.1633 393.905 24.1115 393.914 24.0608L395.152 16.9417L400.955 22.4038L394.92 24.82C394.903 24.8264 394.885 24.8295 394.867 24.8288H394.843C394.835 24.8241 394.827 24.8182 394.811 24.8032C394.586 24.5679 394.318 24.3734 394.018 24.2293L394.018 24.2294ZM402.436 23.7955L408.641 29.6342C409.929 30.8483 410.574 31.4539 410.81 32.1559C410.845 32.2598 410.874 32.3637 410.896 32.4707L396.067 26.5612C396.059 26.5581 396.052 26.555 396.043 26.5524C395.984 26.5298 395.915 26.5042 395.915 26.4469C395.915 26.3897 395.986 26.3625 396.045 26.34L396.064 26.3325L402.436 23.7955ZM410.643 34.3446C410.323 34.911 409.699 35.4985 408.642 36.4942L401.646 43.0755L392.598 41.3025L392.55 41.2937C392.47 41.2815 392.386 41.2681 392.386 41.2003C392.316 40.4903 391.936 39.8394 391.337 39.4032C391.3 39.3685 391.31 39.3143 391.321 39.2646C391.321 39.2571 391.321 39.2497 391.324 39.2434L393.026 29.4129L393.032 29.3797C393.042 29.3044 393.056 29.217 393.128 29.217C393.865 29.1308 394.534 28.7699 394.985 28.2153C395 28.2004 395.009 28.1837 395.028 28.1746C395.08 28.152 395.141 28.1746 395.193 28.1958L410.642 34.3448L410.643 34.3446ZM400.038 44.5894L388.534 55.4142L390.503 44.026L390.506 44.0111C390.508 43.9962 390.511 43.981 390.515 43.9674C390.531 43.9313 390.573 43.9162 390.613 43.9011L390.632 43.8936C391.064 43.7205 391.445 43.4536 391.745 43.1148C391.783 43.0727 391.83 43.032 391.889 43.0244C391.904 43.022 391.92 43.022 391.935 43.0244L400.036 44.5911L400.038 44.5894ZM386.099 57.7053L384.802 58.9255L370.467 39.4301C370.462 39.423 370.456 39.416 370.451 39.4089C370.429 39.3803 370.404 39.3517 370.409 39.3185C370.409 39.2944 370.427 39.2733 370.444 39.2553L370.46 39.2357C370.504 39.1754 370.54 39.1151 370.58 39.0504L370.612 38.9976L370.617 38.9929C370.64 38.9568 370.661 38.9221 370.699 38.9025C370.733 38.8876 370.779 38.8937 370.816 38.901L386.698 41.983C386.742 41.9895 386.784 42.0067 386.82 42.0328C386.84 42.0524 386.845 42.0734 386.85 42.0975C387.075 42.8971 387.683 43.5519 388.496 43.8675C388.54 43.8887 388.521 43.9353 388.501 43.985C388.49 44.0069 388.482 44.0295 388.477 44.0528C388.277 45.1976 386.56 55.0463 386.099 57.705L386.099 57.7053ZM383.39 60.2526C382.435 61.1429 381.871 61.6144 381.234 61.8042C380.606 61.9911 379.932 61.9911 379.303 61.8042C378.557 61.5812 377.912 60.9757 376.624 59.7615L362.227 46.2148L365.988 40.7271C366.005 40.7 366.023 40.6759 366.052 40.6563C366.092 40.6292 366.149 40.6413 366.197 40.6563C367.06 40.9013 367.987 40.8571 368.819 40.5312C368.863 40.5163 368.906 40.5056 368.939 40.5342C368.956 40.5485 368.971 40.5648 368.984 40.5824L383.39 60.254L383.39 60.2526ZM360.839 44.9088L357.537 41.8011L364.059 39.1831C364.075 39.1761 364.093 39.1726 364.111 39.1725C364.166 39.1725 364.198 39.2237 364.227 39.2704C364.292 39.3652 364.362 39.4577 364.435 39.5475L364.456 39.5716C364.475 39.5972 364.462 39.6229 364.443 39.647L360.841 44.9087L360.839 44.9088ZM356.075 40.4258L351.897 36.4942C351.186 35.8254 350.671 35.3403 350.312 34.9231L363.016 37.4025C363.032 37.4053 363.048 37.4079 363.064 37.41C363.143 37.4222 363.229 37.4356 363.229 37.5049C363.229 37.5803 363.135 37.6149 363.055 37.6435L363.018 37.6584L356.075 40.4258ZM349.582 32.9015C349.597 32.6482 349.645 32.3977 349.726 32.1559C349.963 31.4539 350.607 30.8483 351.897 29.6342L357.244 24.6029C359.706 27.965 362.174 31.3227 364.649 34.676C364.692 34.7302 364.74 34.7905 364.691 34.8357C364.457 35.0782 364.223 35.3433 364.059 35.631C364.041 35.668 364.013 35.7002 363.978 35.7244C363.958 35.7366 363.935 35.7319 363.911 35.7274H363.908L349.582 32.9V32.9015ZM358.675 23.2562L365.861 16.4912C366.538 16.7698 368.999 17.7475 371.197 18.6212C372.862 19.284 374.379 19.8865 374.856 20.0823C374.904 20.1004 374.947 20.1185 374.968 20.1637C374.981 20.1908 374.975 20.2254 374.968 20.2541C374.737 21.246 375.052 22.2809 375.806 23.0077C375.854 23.0529 375.806 23.1177 375.764 23.1734L375.742 23.2051L368.442 33.8445C368.422 33.8746 368.405 33.9003 368.373 33.9199C368.334 33.9425 368.28 33.932 368.235 33.9214C367.951 33.8514 367.659 33.814 367.366 33.8099C367.103 33.8099 366.818 33.8551 366.53 33.9048H366.529C366.497 33.9095 366.468 33.9154 366.442 33.8973C366.414 33.8755 366.39 33.8496 366.37 33.8205L358.673 23.2563L358.675 23.2562ZM367.316 15.1249L376.624 6.36687C377.912 5.15424 378.557 4.54718 379.303 4.32574C379.932 4.13882 380.606 4.13882 381.234 4.32574C381.98 4.54718 382.625 5.15424 383.914 6.36687L385.931 8.26489L379.311 17.9117C379.295 17.9397 379.273 17.9643 379.246 17.984C379.206 18.0096 379.15 17.9989 379.102 17.984C378.042 17.6814 376.892 17.8899 376.028 18.5413C375.985 18.5835 375.921 18.5594 375.866 18.5366C375.002 18.1826 368.278 15.5088 367.316 15.1247L367.316 15.1249ZM387.336 9.58748L393.448 15.3388L391.976 23.9221V23.9447C391.974 23.9643 391.97 23.9835 391.963 24.0019C391.947 24.032 391.915 24.0381 391.883 24.0471C391.568 24.1369 391.271 24.2759 391.005 24.4583C390.994 24.4662 390.983 24.4746 390.973 24.4839C390.956 24.502 390.938 24.5186 390.909 24.5216C390.886 24.5222 390.863 24.5188 390.841 24.511L381.527 20.7873L381.509 20.7798C381.45 20.7572 381.379 20.73 381.379 20.6728C381.325 20.1844 381.155 19.7136 380.883 19.2945C380.838 19.2252 380.789 19.1529 380.827 19.0821L387.336 9.58748ZM381.042 22.5513L389.773 26.031C389.821 26.0522 389.874 26.0716 389.895 26.1183C389.903 26.1464 389.903 26.1761 389.895 26.2042C389.869 26.3247 389.847 26.4618 389.847 26.6004V26.8309C389.847 26.8881 389.784 26.9122 389.727 26.9348L389.709 26.9407C388.326 27.4966 370.29 34.7331 370.263 34.7331C370.236 34.7331 370.207 34.7331 370.18 34.7075C370.132 34.6624 370.18 34.5991 370.223 34.5418C370.231 34.5319 370.238 34.5218 370.246 34.5117L377.421 24.0575L377.434 24.0395C377.475 23.9762 377.523 23.9054 377.6 23.9054L377.672 23.916C377.835 23.9371 377.979 23.9566 378.125 23.9566C379.214 23.9566 380.222 23.458 380.831 22.6054C380.845 22.5826 380.863 22.5623 380.885 22.5451C380.928 22.515 380.992 22.5302 381.042 22.551L381.042 22.5513ZM371.043 36.3872L390.701 28.4984C390.701 28.4984 390.73 28.4984 390.757 28.524C390.865 28.6249 390.956 28.6927 391.044 28.756L391.087 28.7816C391.127 28.8028 391.167 28.8268 391.17 28.866C391.17 28.8809 391.17 28.8901 391.167 28.9036L389.483 38.6378L389.477 38.6769C389.465 38.7523 389.454 38.8381 389.379 38.8381C388.468 38.896 387.645 39.3734 387.181 40.114L387.173 40.1262C387.151 40.1608 387.13 40.194 387.093 40.212C387.059 40.227 387.016 40.2209 386.981 40.2136L371.304 37.1707C371.288 37.1677 371.061 36.3889 371.043 36.3874L371.043 36.3872Z" fill="#F4F4F4"/>
<g clip-path="url(#clip1_156_25)">
<path d="M507.325 4.37646C490.461 4.37646 476.786 17.2173 476.786 33.0577C476.786 45.7301 485.536 56.481 497.67 60.2735C499.196 60.539 499.757 59.6513 499.757 58.8937C499.757 58.2099 499.728 55.9504 499.715 53.5538C491.219 55.2888 489.427 50.1698 489.427 50.1698C488.038 46.8546 486.036 45.9733 486.036 45.9733C483.265 44.1931 486.245 44.2295 486.245 44.2295C489.311 44.432 490.926 47.1853 490.926 47.1853C493.65 51.5701 498.07 50.3023 499.813 49.5696C500.087 47.7157 500.878 46.4506 501.752 45.7344C494.969 45.0089 487.838 42.5496 487.838 31.5599C487.838 28.4287 489.031 25.8699 490.985 23.8614C490.668 23.1389 489.623 20.2219 491.281 16.2712C491.281 16.2712 493.845 15.5003 499.681 19.2112C502.117 18.5755 504.729 18.257 507.325 18.2462C509.92 18.257 512.534 18.5755 514.975 19.2112C520.804 15.5003 523.365 16.2712 523.365 16.2712C525.027 20.2219 523.981 23.1389 523.664 23.8614C525.622 25.8699 526.807 28.4284 526.807 31.5599C526.807 42.5757 519.663 45.0015 512.863 45.7114C513.958 46.6015 514.934 48.3471 514.934 51.0228C514.934 54.8603 514.899 57.949 514.899 58.8937C514.899 59.657 515.448 60.5513 516.996 60.2697C529.124 56.4729 537.863 45.7258 537.863 33.0577C537.863 17.2173 524.19 4.37646 507.325 4.37646Z" fill="#F4F4F4"/>
<path d="M488.224 45.2337C488.157 45.3761 487.918 45.4188 487.701 45.3212C487.479 45.2276 487.355 45.0332 487.427 44.8902C487.492 44.7435 487.732 44.7026 487.953 44.8011C488.175 44.8945 488.301 45.0906 488.224 45.2337ZM489.726 46.4924C489.581 46.6193 489.296 46.5604 489.103 46.36C488.903 46.16 488.866 45.8928 489.013 45.7639C489.164 45.6372 489.44 45.6964 489.64 45.8966C489.84 46.0988 489.878 46.3645 489.726 46.4927M490.757 48.103C490.57 48.2252 490.264 48.1107 490.075 47.8556C489.888 47.6007 489.888 47.2948 490.079 47.1722C490.268 47.0496 490.57 47.1599 490.761 47.4129C490.948 47.6723 490.948 47.9782 490.757 48.1033M492.5 49.9685C492.332 50.1417 491.976 50.0954 491.715 49.8587C491.448 49.6275 491.373 49.2993 491.541 49.1259C491.711 48.9522 492.069 49.001 492.332 49.2356C492.597 49.4664 492.678 49.7971 492.5 49.9685M494.752 50.5983C494.678 50.8228 494.335 50.9249 493.989 50.8296C493.644 50.7313 493.418 50.4681 493.487 50.2411C493.559 50.0151 493.904 49.9087 494.253 50.0108C494.597 50.1086 494.824 50.3698 494.752 50.5983M497.316 50.8653C497.324 51.102 497.031 51.2981 496.668 51.3024C496.303 51.3098 496.007 51.1184 496.003 50.8858C496.003 50.6469 496.29 50.4526 496.655 50.4469C497.018 50.4402 497.316 50.6303 497.316 50.8653ZM499.834 50.7747C499.877 51.0055 499.625 51.2426 499.265 51.3055C498.91 51.3663 498.582 51.2239 498.537 50.9951C498.493 50.7585 498.75 50.5216 499.104 50.4602C499.465 50.4013 499.788 50.5401 499.834 50.7747Z" fill="#F4F4F4"/>
</g>
<path d="M624.245 20.9101H620.35L630.968 48.3666L636.913 32.8277L632.304 20.9101H628.194V18.2939H646.393V20.9101H642.131L652.75 48.3666L656.567 38.3891C661.574 25.606 652.463 21.6241 652.463 18.7712C652.463 15.9184 654.991 13.6058 658.11 13.6058C658.279 13.6058 658.442 13.6142 658.603 13.6279C653.319 9.06483 646.193 6.2666 638.352 6.2666C628.107 6.2666 619.083 11.0433 613.793 18.2939H624.244V20.9101H624.245Z" fill="#F4F4F4"/>
<path d="M608.845 33.2573C608.845 43.5907 615.194 52.5663 624.518 57.1018L611.202 22.6707C609.685 25.9213 608.845 29.4994 608.845 33.2573Z" fill="#F4F4F4"/>
<path d="M664.032 19.9573C664.454 22.2305 664.327 24.7855 663.679 27.3504H663.796L663.35 28.5165C663.086 29.3586 662.753 30.2199 662.375 31.0663L652.222 57.0845C661.526 52.5435 667.859 43.5776 667.859 33.2573C667.859 28.4213 666.468 23.883 664.032 19.9573Z" fill="#F4F4F4"/>
<path d="M629.252 58.9377C632.119 59.7871 635.176 60.2478 638.352 60.2478C641.382 60.2478 644.304 59.8296 647.055 59.0539L638.424 36.7363L629.252 58.9377Z" fill="#F4F4F4"/>
<path d="M663.289 10.448C656.628 4.35537 647.772 1 638.352 1C628.932 1 620.077 4.35537 613.416 10.448C606.755 16.5406 603.087 24.6412 603.087 33.2577C603.087 41.874 606.755 49.9746 613.416 56.0672C620.077 62.1598 628.933 65.5152 638.352 65.5152C647.772 65.5152 656.628 62.1598 663.289 56.0672C669.95 49.9746 673.618 41.8739 673.618 33.2577C673.618 24.6412 669.949 16.5406 663.289 10.448ZM638.352 63.2397C620.279 63.2397 605.575 49.7898 605.575 33.2577C605.575 16.7255 620.279 3.27553 638.352 3.27553C656.426 3.27553 671.13 16.7255 671.13 33.2577C671.13 49.7898 656.426 63.2397 638.352 63.2397Z" fill="#F4F4F4"/>
<path d="M795.176 8.74667C788.471 -0.0392464 775.228 -2.64346 765.655 2.94236L748.842 12.7556C747.71 13.4067 746.655 14.1637 745.695 15.0144C744.734 15.8652 743.873 16.8054 743.125 17.8195C742.377 18.8336 741.746 19.9161 741.241 21.0494C740.737 22.1832 740.364 23.3618 740.125 24.5662C739.927 25.5759 739.818 26.5999 739.804 27.6261C739.788 28.6535 739.866 29.6797 740.036 30.6938C740.206 31.709 740.467 32.7099 740.817 33.6854C741.166 34.6608 741.603 35.6076 742.124 36.5169C741.766 37.0153 741.435 37.5298 741.134 38.0585C740.831 38.587 740.559 39.1299 740.317 39.6839C740.075 40.2378 739.864 40.8028 739.685 41.3766C739.505 41.9504 739.358 42.532 739.242 43.119C738.762 45.5877 738.825 48.1195 739.429 50.5653C739.73 51.7847 740.163 52.9742 740.722 54.1152C741.281 55.2562 741.961 56.3442 742.756 57.3617C749.461 66.1476 762.702 68.7518 772.276 63.166L789.089 53.3935C790.22 52.7414 791.273 51.9833 792.233 51.1314C793.193 50.2802 794.054 49.3401 794.802 48.3263C795.55 47.3134 796.182 46.2308 796.686 45.0976C797.191 43.9654 797.566 42.7869 797.805 41.583C798.004 40.5733 798.111 39.5504 798.126 38.5241C798.14 37.4979 798.062 36.4716 797.891 35.4575C797.721 34.4434 797.46 33.4437 797.109 32.4682C796.759 31.4938 796.321 30.5471 795.801 29.6378C796.159 29.1401 796.49 28.6248 796.792 28.0962C797.093 27.5677 797.367 27.0247 797.609 26.4708C797.851 25.9168 798.063 25.3519 798.244 24.7781C798.423 24.2053 798.573 23.6238 798.689 23.0368C798.928 21.8053 799.032 20.555 799 19.3048C798.969 18.0545 798.802 16.8109 798.5 15.5905C798.199 14.3711 797.767 13.1816 797.208 12.0406C796.65 10.8994 795.969 9.81188 795.176 8.79412" fill="#F4F4F4"/>
<path d="M764.071 57.7512C762.771 58.0638 761.427 58.1908 760.086 58.1279C758.744 58.064 757.421 57.8129 756.162 57.3801C754.903 56.9479 753.722 56.3407 752.661 55.5793C751.6 54.8174 750.671 53.9104 749.906 52.8897C749.433 52.2784 749.028 51.6264 748.698 50.9413C748.366 50.2567 748.109 49.5431 747.93 48.8112C747.753 48.0788 747.653 47.332 747.635 46.582C747.617 45.8319 747.68 45.0819 747.823 44.3428C747.845 44.2228 747.872 44.1027 747.9 43.9838C747.928 43.8637 747.958 43.7448 747.992 43.6269C748.024 43.508 748.06 43.3901 748.098 43.2723C748.135 43.1555 748.175 43.0388 748.217 42.9231L748.53 42.0387L749.383 42.628C749.872 42.9584 750.377 43.2701 750.894 43.5609C751.412 43.8527 751.943 44.1237 752.486 44.3726C753.027 44.6226 753.582 44.8517 754.145 45.0577C754.708 45.2647 755.28 45.4486 755.861 45.6105L756.498 45.7813L756.44 46.3705C756.41 46.7715 756.455 47.1744 756.574 47.5611C756.632 47.755 756.709 47.9422 756.803 48.1228C756.897 48.3035 757.008 48.4764 757.134 48.6394C757.365 48.9468 757.646 49.2198 757.966 49.4489C758.285 49.678 758.641 49.8608 759.021 49.9908C759.4 50.1208 759.798 50.1957 760.202 50.2144C760.606 50.2342 761.01 50.1957 761.402 50.1009C761.492 50.0789 761.58 50.0536 761.669 50.0249C761.757 49.9963 761.843 49.9655 761.928 49.9302C762.014 49.8961 762.097 49.8586 762.18 49.8179C762.262 49.7782 762.342 49.7353 762.421 49.689L779.007 39.8932C779.211 39.7752 779.4 39.6379 779.572 39.4835C779.745 39.3282 779.899 39.1575 780.033 38.9735C780.168 38.7896 780.279 38.5925 780.37 38.3865C780.459 38.1805 780.526 37.9669 780.569 37.7488C780.61 37.5252 780.628 37.2994 780.622 37.0725C780.616 36.8468 780.585 36.6221 780.531 36.4007C780.477 36.1804 780.398 35.9656 780.297 35.7586C780.197 35.5526 780.074 35.3566 779.931 35.1726C779.7 34.8653 779.42 34.5933 779.1 34.3642C778.78 34.1351 778.424 33.9523 778.046 33.8223C777.666 33.6923 777.268 33.6166 776.864 33.5976C776.459 33.5789 776.055 33.6175 775.663 33.7111C775.574 33.7331 775.484 33.7584 775.396 33.7871C775.308 33.8157 775.223 33.8466 775.137 33.8807C775.051 33.9159 774.968 33.9534 774.886 33.9941C774.804 34.0338 774.723 34.0779 774.644 34.1241L768.275 37.8666C768.015 38.0186 767.749 38.1618 767.477 38.2962C767.205 38.4295 766.929 38.5539 766.647 38.6685C766.365 38.783 766.078 38.8876 765.787 38.9813C765.497 39.076 765.203 39.1597 764.906 39.2335C763.607 39.5441 762.266 39.6696 760.927 39.6057C759.588 39.5419 758.268 39.2896 757.012 38.859C755.755 38.4273 754.577 37.8204 753.517 37.0604C752.458 36.3005 751.53 35.3962 750.765 34.3774C750.295 33.7662 749.891 33.113 749.562 32.428C749.231 31.7429 748.975 31.0292 748.798 30.2979C748.62 29.5654 748.523 28.8187 748.506 28.0686C748.488 27.3197 748.551 26.5696 748.695 25.8317C748.977 24.3788 749.582 22.9962 750.473 21.772C751.365 20.5478 752.523 19.5094 753.873 18.7233L770.511 8.92861C770.769 8.77662 771.033 8.63343 771.304 8.49906C771.574 8.3658 771.85 8.24134 772.13 8.12679C772.41 8.0122 772.695 7.90786 772.984 7.814C773.272 7.71928 773.565 7.63447 773.861 7.56068C775.161 7.24898 776.504 7.12122 777.844 7.184C779.186 7.24788 780.508 7.499 781.767 7.93185C783.026 8.36359 784.206 8.97156 785.267 9.73263C786.327 10.4949 787.256 11.4022 788.021 12.4233C788.492 13.0335 788.898 13.6855 789.23 14.3706C789.562 15.0557 789.819 15.7683 789.999 16.5007C790.178 17.2331 790.277 17.9799 790.295 18.7299C790.314 19.48 790.252 20.23 790.11 20.9691C790.085 21.0902 790.058 21.2114 790.029 21.3314C790 21.4515 789.969 21.5715 789.936 21.6905C789.904 21.8105 789.868 21.9295 789.831 22.0473C789.794 22.1663 789.756 22.2841 789.715 22.4009L789.397 23.2853L788.549 22.696C788.059 22.3623 787.553 22.0495 787.034 21.7555C786.516 21.4625 785.982 21.1893 785.439 20.9371C784.35 20.4344 783.217 20.0174 782.053 19.6903L781.415 19.5196L781.473 18.9304C781.491 18.7288 781.49 18.5262 781.47 18.3257C781.45 18.1253 781.411 17.9259 781.354 17.731C781.296 17.5371 781.221 17.3466 781.127 17.1648C781.034 16.982 780.923 16.808 780.797 16.6428C780.565 16.3409 780.284 16.0735 779.965 15.8498C779.647 15.625 779.293 15.4467 778.916 15.3211C778.158 15.0668 777.335 15.0326 776.556 15.2231C776.465 15.2451 776.376 15.2704 776.289 15.298C776.201 15.3266 776.114 15.3586 776.028 15.3927C775.944 15.4268 775.859 15.4654 775.777 15.505C775.695 15.5458 775.614 15.5887 775.536 15.635L758.918 25.4132C758.716 25.531 758.527 25.6687 758.355 25.8229C758.184 25.9771 758.029 26.1478 757.895 26.3306C757.761 26.5145 757.648 26.7105 757.558 26.9155C757.467 27.1214 757.401 27.334 757.358 27.5521C757.316 27.7757 757.298 28.0026 757.304 28.2294C757.319 28.6836 757.429 29.1308 757.629 29.5456C757.73 29.7521 757.853 29.9491 757.995 30.1338C758.224 30.4377 758.503 30.7087 758.821 30.9356C759.138 31.1635 759.49 31.3455 759.867 31.4753C760.623 31.7356 761.447 31.7774 762.23 31.5953C762.32 31.5722 762.409 31.5468 762.497 31.5182C762.584 31.4896 762.671 31.4576 762.756 31.4235C762.842 31.3892 762.925 31.3517 763.007 31.3111C763.09 31.2715 763.17 31.2285 763.249 31.1823L769.618 27.4464C769.879 27.2922 770.144 27.1468 770.417 27.0124C770.688 26.8769 770.966 26.7525 771.249 26.6368C771.531 26.5222 771.818 26.4179 772.109 26.324C772.401 26.2293 772.696 26.1456 772.995 26.0729C774.294 25.7601 775.637 25.6324 776.978 25.694C778.319 25.7568 779.641 26.0079 780.901 26.4397C782.159 26.8714 783.339 27.4783 784.4 28.2405C785.461 29.0015 786.389 29.908 787.155 30.929C787.626 31.5402 788.031 32.1923 788.363 32.8773C788.695 33.562 788.952 34.2755 789.131 35.0074C789.31 35.7388 789.41 36.4855 789.429 37.2355C789.448 37.9867 789.385 38.7367 789.243 39.4747C789.103 40.1992 788.882 40.9083 788.583 41.5905C788.284 42.2728 787.909 42.9243 787.464 43.5344C787.02 44.1446 786.508 44.7107 785.937 45.2229C785.366 45.735 784.739 46.191 784.065 46.5831L767.446 56.3778C767.186 56.5309 766.919 56.6752 766.648 56.8095C766.375 56.9439 766.098 57.0684 765.815 57.1829C765.533 57.2985 765.246 57.4032 764.954 57.4979C764.664 57.5926 764.369 57.6774 764.071 57.7512Z" fill="#9E3333"/>
<path d="M749.192 131.463C752.15 120.488 759.549 115 771.384 115C789.138 115 791.357 127.347 800.234 129.405C806.152 130.777 811.33 128.72 815.768 123.231C812.81 134.206 805.411 139.694 793.576 139.694C775.822 139.694 773.603 127.347 764.726 125.289C758.808 123.917 753.63 125.974 749.192 131.463ZM727 156.157C729.958 145.182 737.357 139.694 749.192 139.694C766.946 139.694 769.165 152.041 778.042 154.099C783.96 155.471 789.138 153.414 793.576 147.925C790.618 158.9 783.219 164.388 771.384 164.388C753.63 164.388 751.411 152.041 742.534 149.983C736.616 148.611 731.438 150.668 727 156.157Z" fill="#F4F4F4"/>
<path d="M231.292 119.35H281.708V169.65H231.292V119.35ZM229 172H284V117H229V172ZM262 140.222C262 139.94 262 139.259 261.885 137.942C261.885 137.754 261.908 137.707 262.069 137.637C263.467 137.049 266.744 136.015 270.456 136.015C270.64 136.015 270.731 136.062 270.731 136.25V139.658C270.731 139.846 270.662 139.893 270.479 139.893C269.035 139.823 266.95 140.011 266.148 140.363V155.171C266.148 155.359 266.079 155.453 265.873 155.453H262.275C262.092 155.453 262 155.382 262 155.171V140.222H262ZM247.333 142.361C247.86 142.408 248.273 142.408 249.19 142.408C251.871 142.408 254.392 141.444 254.392 137.707C254.392 134.722 252.604 133.218 249.533 133.218C248.617 133.218 247.746 133.265 247.333 133.288V142.361ZM243.277 129.88C243.277 129.716 243.323 129.598 243.506 129.598C244.973 129.528 247.127 129.481 249.396 129.481C255.744 129.481 258.517 133.053 258.517 137.637C258.517 143.607 254.3 146.169 249.121 146.169C248.25 146.169 247.952 146.122 247.333 146.122V155.147C247.333 155.335 247.265 155.429 247.058 155.429H243.529C243.346 155.429 243.254 155.359 243.254 155.147V129.88H243.277Z" fill="white"/>
<path d="M350 117V172H405V117H350ZM352.292 119.35H402.708V169.65H352.292V119.35Z" fill="white"/>
<path d="M389.944 140.104C389.601 139.94 389.165 139.869 388.615 139.869C385.728 139.869 383.803 142.149 383.803 145.933C383.803 150.258 385.773 151.997 388.34 151.997C388.89 151.997 389.486 151.927 389.921 151.739V140.104H389.944ZM379.678 146.121C379.678 140.645 383.115 136.367 388.753 136.367C389.234 136.367 389.486 136.367 389.944 136.414V130.303C389.944 130.162 390.059 130.068 390.173 130.068H393.863C394.046 130.068 394.092 130.138 394.092 130.256V151.739C394.092 152.373 394.092 153.173 394.207 154.042C394.207 154.207 394.207 154.23 394.069 154.301C392.144 155.241 390.128 155.664 388.203 155.664C383.23 155.664 379.678 152.515 379.678 146.121V146.121ZM371.863 142.314L378.28 155.076C378.394 155.265 378.326 155.453 378.142 155.453H374.155C373.903 155.453 373.788 155.382 373.673 155.147C372.207 152.044 370.717 148.824 369.182 145.487H369.136C367.761 148.636 366.248 152.068 364.782 155.171C364.667 155.359 364.553 155.429 364.369 155.429H360.565C360.336 155.429 360.313 155.241 360.428 155.1L366.707 142.713L360.634 130.397C360.496 130.209 360.634 130.044 360.794 130.044H364.736C364.965 130.044 365.08 130.091 365.148 130.303C366.592 133.429 368.059 136.508 369.434 139.658H369.48C370.809 136.555 372.276 133.429 373.673 130.35C373.788 130.162 373.857 130.044 374.086 130.044H377.776C377.959 130.044 378.028 130.185 377.913 130.397L371.863 142.314V142.314Z" fill="white"/>
<path d="M480.292 118.292H530.708V167.333H480.292V118.292ZM478 169.625H533V116H478V169.625ZM514.025 135.113C514.025 134.929 514.094 134.837 514.3 134.837H517.898C518.081 134.837 518.173 134.906 518.173 135.113V153.194C518.173 153.377 518.127 153.469 517.898 153.469H514.346C514.117 153.469 514.048 153.354 514.048 153.171V135.113H514.025ZM513.773 129.91C513.773 128.444 514.804 127.573 516.111 127.573C517.508 127.573 518.448 128.513 518.448 129.91C518.448 131.423 517.463 132.248 516.065 132.248C514.735 132.248 513.773 131.423 513.773 129.91ZM503.46 142.652C502.819 140.108 501.306 134.563 500.733 131.881H500.688C500.206 134.563 498.992 139.1 498.029 142.652H503.46ZM497.09 146.365L495.279 153.24C495.233 153.423 495.165 153.469 494.935 153.469H491.567C491.338 153.469 491.292 153.4 491.338 153.125L497.846 130.346C497.96 129.933 498.029 129.567 498.075 128.444C498.075 128.283 498.144 128.215 498.258 128.215H503.071C503.231 128.215 503.3 128.26 503.346 128.444L510.633 153.171C510.679 153.354 510.633 153.469 510.45 153.469H506.646C506.463 153.469 506.348 153.423 506.302 153.263L504.423 146.365H497.09Z" fill="white"/>
<path d="M2.29164 120.292H52.7085V169.333H2.29164V120.292ZM0 171.625H55.0001V118H0V171.625ZM37.0792 140C35.2688 140 34.6501 140.917 34.6501 141.673C34.6501 142.498 35.0626 143.071 37.4918 144.331C41.0897 146.073 42.2126 147.746 42.2126 150.198C42.2126 153.865 39.4168 155.835 35.6355 155.835C33.6417 155.835 31.9229 155.423 30.9376 154.85C30.7772 154.781 30.7542 154.667 30.7542 154.483V151.115C30.7542 150.885 30.8688 150.817 31.0293 150.931C32.473 151.871 34.123 152.283 35.6355 152.283C37.4459 152.283 38.2022 151.527 38.2022 150.496C38.2022 149.671 37.6751 148.938 35.3604 147.746C32.1062 146.188 30.7542 144.606 30.7542 141.971C30.7542 139.015 33.0689 136.563 37.0792 136.563C39.0501 136.563 40.4251 136.861 41.1813 137.204C41.3646 137.319 41.4105 137.502 41.4105 137.662V140.802C41.4105 140.985 41.2959 141.1 41.0667 141.031C40.0584 140.39 38.5688 140 37.0792 140ZM17.3708 142.727C17.8979 142.773 18.3105 142.773 19.2271 142.773C21.9085 142.773 24.4293 141.833 24.4293 138.19C24.4293 135.279 22.6188 133.813 19.5709 133.813C18.6543 133.813 17.7834 133.858 17.3708 133.881V142.727ZM13.2918 130.558C13.2918 130.398 13.6126 130.283 13.7958 130.283C15.2626 130.215 17.4397 130.169 19.7084 130.169C26.0563 130.169 28.5313 133.652 28.5313 138.098C28.5313 143.919 24.3146 146.417 19.1355 146.417C18.2647 146.417 17.9668 146.371 17.3479 146.371V155.171C17.3479 155.354 17.2792 155.446 17.073 155.446H13.5667C13.3834 155.446 13.2917 155.377 13.2917 155.171V130.558H13.2918Z" fill="white"/>
<path d="M117 117V172H172V117H117ZM119.286 119.344H169.702V169.643H119.286V119.344ZM132.547 148.142L130.726 155.163C130.689 155.351 130.603 155.426 130.383 155.426H127.022C126.802 155.426 126.766 155.338 126.802 155.075L133.304 131.718C133.414 131.292 133.488 130.954 133.524 129.788C133.524 129.625 133.598 129.55 133.708 129.55H138.511C138.67 129.55 138.731 129.6 138.768 129.788L146.089 155.113C146.126 155.301 146.089 155.413 145.906 155.413H142.129C141.946 155.413 141.823 155.351 141.787 155.188L139.892 148.129L132.547 148.142ZM138.976 144.318C138.328 141.723 136.776 136.019 136.213 133.273H136.177C135.688 136.019 134.453 140.67 133.5 144.318H138.976ZM151.259 146.725C151.308 149.91 152.774 152.041 156.258 152.041C157.614 152.041 158.788 151.853 159.986 151.301C160.144 151.226 160.254 151.276 160.254 151.464V154.423C160.254 154.649 160.181 154.774 160.022 154.887C158.812 155.501 157.309 155.777 155.427 155.777C149.377 155.777 147.116 151.201 147.116 146.086C147.116 140.545 149.914 136.006 154.828 136.006C159.814 136.006 161.55 140.319 161.55 143.804C161.55 144.933 161.464 145.86 161.367 146.287C161.318 146.475 161.244 146.55 161.061 146.575C160.609 146.663 159.24 146.738 157.236 146.738L151.259 146.725ZM155.916 143.491C157.089 143.491 157.504 143.491 157.614 143.453C157.614 143.29 157.651 143.165 157.651 143.052C157.651 141.761 157.04 139.416 154.657 139.416C152.469 139.416 151.516 141.397 151.296 143.491H155.916Z" fill="white"/>
<path d="M626.815 115H636.592V132.825H626.815C613.923 132.365 613.793 115.483 626.815 115ZM626.815 151.411H636.592V133.587H626.815C613.793 134.069 613.923 150.952 626.815 151.411ZM647.204 115H637.428V132.825H647.204C660.27 132.187 660.107 115.364 647.204 115ZM636.592 161.086V152.174H626.815C618.838 152.174 613.793 160.7 619.341 166.825C624.631 172.895 636.592 169.869 636.592 161.086ZM657 142.499C657 135.65 648.811 131.346 642.295 134.771C635.779 138.195 635.779 146.803 642.295 150.228C648.811 153.652 657 149.348 657 142.499Z" fill="white"/>
<defs>
<clipPath id="clip0_156_25">
<rect width="48.5022" height="53.3931" fill="white" transform="translate(235.189 5.25171)"/>
</clipPath>
<clipPath id="clip1_156_25">
<rect width="61.3141" height="56.0189" fill="white" transform="translate(476.786 4.37646)"/>
</clipPath>
</defs>
</svg>
