<svg width="37" height="27" viewBox="0 0 37 27" fill="none" xmlns="http://www.w3.org/2000/svg">
<path d="M32.625 0.893555H3.625C2.66359 0.893555 1.74156 1.23056 1.06174 1.83042C0.381918 2.43029 0 3.24389 0 4.09223V23.2843C0 24.1326 0.381918 24.9462 1.06174 25.5461C1.74156 26.1459 2.66359 26.4829 3.625 26.4829H32.625C33.5864 26.4829 34.5084 26.1459 35.1883 25.5461C35.8681 24.9462 36.25 24.1326 36.25 23.2843V4.09223C36.25 3.24389 35.8681 2.43029 35.1883 1.83042C34.5084 1.23056 33.5864 0.893555 32.625 0.893555ZM32.625 7.66834L18.125 15.4763L3.625 7.66834V4.09223H32.625V7.66834Z" fill="#9E3333"/>
</svg>
