<svg width="54" height="54" viewBox="0 0 54 54" fill="none" xmlns="http://www.w3.org/2000/svg">
<path d="M4.89663 48.087L0 0.770264H53.8208L48.9241 48.0688L26.8682 53.3383L4.89663 48.087Z" fill="#F4F4F4"/>
<path d="M26.9102 49.3231L44.7238 45.0711L48.9239 4.64111H26.9102V49.3231Z" fill="#F4F4F4"/>
<path d="M26.91 22.1939H17.982L17.37 16.252H26.91V10.4556H26.8889H10.0039L10.1728 12.0001L11.819 27.9904H26.91V22.1939Z" fill="#9E3333"/>
<path d="M26.9101 37.2572L26.889 37.2754L19.3752 35.5128L18.8897 30.8975H15.2384H12.1357L13.0644 40.001L26.889 43.3081L26.9101 43.2899V37.2572Z" fill="#9E3333"/>
<path d="M26.8896 22.1938V27.9903H35.1844L34.4035 35.513L26.8896 37.2574V43.3083L40.6931 40.0012L40.7986 39.02L42.3816 23.7565L42.5504 22.1938H40.7353H26.8896Z" fill="#9E3333"/>
<path d="M26.8896 10.4556V14.0534V16.2339V16.252H43.1414H43.1625L43.3103 14.9437L43.6058 12.0001L43.7746 10.4556H26.8896Z" fill="#9E3333"/>
</svg>
