<svg width="55" height="54" viewBox="0 0 55 54" fill="none" xmlns="http://www.w3.org/2000/svg">
<path d="M2.29164 2.29164H52.7085V51.3335H2.29164V2.29164ZM0 53.6252H55.0001V0H0V53.6252ZM36.025 19.1126C36.025 18.9292 36.0938 18.8375 36.3001 18.8375H39.898C40.0812 18.8375 40.1729 18.9062 40.1729 19.1126V37.1939C40.1729 37.3771 40.1271 37.4689 39.898 37.4689H36.3459C36.1168 37.4689 36.0479 37.3543 36.0479 37.171V19.1126H36.025ZM35.773 13.9104C35.773 12.4438 36.8042 11.573 38.1105 11.573C39.5084 11.573 40.448 12.5125 40.448 13.9104C40.448 15.4229 39.4626 16.2479 38.0647 16.2479C36.7354 16.248 35.773 15.4229 35.773 13.9104ZM25.4605 26.6521C24.8189 24.1084 23.3064 18.5625 22.7334 15.8813H22.6875C22.2063 18.5625 20.9917 23.1 20.0293 26.6521H25.4605ZM19.0896 30.3647L17.2792 37.2397C17.2334 37.4229 17.1646 37.4688 16.9355 37.4688H13.5667C13.3376 37.4688 13.2917 37.4 13.3376 37.1251L19.8459 14.3458C19.9604 13.9333 20.0292 13.5666 20.075 12.4438C20.075 12.2834 20.1438 12.2146 20.2583 12.2146H25.0708C25.2312 12.2146 25.3 12.2605 25.3459 12.4438L32.6333 37.1709C32.6792 37.3541 32.6333 37.4688 32.45 37.4688H28.6458C28.4625 37.4688 28.3479 37.4229 28.3021 37.2626L26.4229 30.3647H19.0896Z" fill="white"/>
</svg>
