<svg width="49" height="54" viewBox="0 0 49 54" fill="none" xmlns="http://www.w3.org/2000/svg">
<g clip-path="url(#clip0_142_19)">
<path d="M4.25073 48.0518L0.189453 0.34082L48.6917 0.436698L44.3973 48.0518L24.6236 53.5555L4.25073 48.0518Z" fill="#F4F4F4"/>
<path d="M24.624 48.9478V4.88477L44.5975 4.94868L41.0358 44.3717L24.624 48.9478Z" fill="#F4F4F4"/>
<path d="M22.4849 10.1167H17.2044V39.444L13.0973 38.692V34.7441L8.20801 33.9921V42.8279L22.4849 46.3998V10.1167ZM26.446 10.1167H41.0643L40.0865 15.7378H32.0265V24.9619H40.0865L39.1086 43.5798L26.446 46.3998V40.5719L35.0016 37.752L35.4956 30.0442L26.446 31.3038V10.1167Z" fill="#9E3333"/>
</g>
<defs>
<clipPath id="clip0_142_19">
<rect width="48.5022" height="53.3931" fill="white" transform="translate(0.189453 0.251709)"/>
</clipPath>
</defs>
</svg>
