<svg width="155" height="155" viewBox="0 0 155 155" fill="none" xmlns="http://www.w3.org/2000/svg">
<path d="M0 1.9375V153.063H155V1.9375H0ZM6.29687 8.23438H148.219V146.281H6.29687V8.23438ZM43.1094 107.531C42.1406 107.531 42.1406 107.047 42.1406 106.563V36.8125C42.1406 36.3281 42.1406 35.8438 43.1094 35.8438H53.2812C53.7656 35.8438 53.7656 35.8437 53.7656 36.8125V96.875H80.4063C80.8906 96.875 80.8906 96.875 80.8906 97.8438L79.4375 106.563C79.4375 107.047 78.9531 107.531 78.4688 107.531H43.1094ZM90.5781 65.3906C90.5781 64.4219 90.5781 62.4844 90.0938 59.0938C90.0938 58.6094 90.0938 58.6094 90.5781 58.125C94.4531 56.6719 103.656 53.7656 114.313 53.7656C114.797 53.7656 115.281 53.7656 115.281 54.25V63.4531C115.281 63.9375 115.281 63.9375 114.313 63.9375C110.438 63.9375 104.141 64.4219 102.203 65.3906V106.563C102.203 107.047 102.203 107.531 101.234 107.531H91.0625C90.5781 107.531 90.0938 107.531 90.0938 106.563L90.5781 65.3906Z" fill="white"/>
</svg>
