<svg xmlns="http://www.w3.org/2000/svg" width="793.098" height="519.801" viewBox="0 0 793.098 519.801">
  <g id="Group_66" data-name="Group 66" transform="translate(-1010.656 -1129.199)">
    <g id="dj_blomst" transform="translate(1010.656 1129.199)">
      <path id="Path_46" data-name="Path 46" d="M92.838,120.456c20.275,0,36.711-16.062,36.711-35.876S113.113,48.7,92.838,48.7,56.127,64.766,56.127,84.58,72.563,120.456,92.838,120.456Z" transform="translate(44.829 38.9)" fill="#191b16"/>
      <path id="Path_47" data-name="Path 47" d="M74.545,74.076a99.652,99.652,0,0,1-1.3-54.173A34.805,34.805,0,0,0,28.21,18.047a34.328,34.328,0,0,0-7.817,44.8,71.907,71.907,0,0,1,35.784,2.067A69.782,69.782,0,0,1,74.545,74.076Z" transform="translate(12.226 8.521)" fill="#dd9023"/>
      <path id="Path_48" data-name="Path 48" d="M80.573,94.16a100.4,100.4,0,0,0-9.939,53.41A34.312,34.312,0,0,1,25.485,96.665a71.3,71.3,0,0,0,35.545,3.643,69.646,69.646,0,0,0,19.543-6.144Z" transform="translate(13.708 75.206)" fill="#dd9023"/>
      <path id="Path_49" data-name="Path 49" d="M90.618,70.917A96.969,96.969,0,0,1,101.334,52.94a100.481,100.481,0,0,1,24.136-22.827C123.673,13.584,109.563.739,92.609.031,75.335-.69,59.932,11.4,57.055,28.108A70.836,70.836,0,0,1,82.775,52.442a66.7,66.7,0,0,1,7.847,18.471Z" transform="translate(45.57 0)" fill="#ba0930"/>
      <path id="Path_50" data-name="Path 50" d="M89.332,102.51A98.621,98.621,0,0,1,79.745,121.3a100.583,100.583,0,0,1-22.69,24.477,34.606,34.606,0,0,0,68.416-1.979A71.358,71.358,0,0,1,98.3,120.716a68.1,68.1,0,0,1-8.967-18.206Z" transform="translate(45.57 81.875)" fill="#ba0930"/>
      <path id="Path_51" data-name="Path 51" d="M72.584,85.662a100.935,100.935,0,0,0-46.149,28.4C9.841,110.1-1.383,94.666.138,78.1,1.687,61.217,16.029,47.872,33.424,47.312A69.373,69.373,0,0,0,72.588,85.662Z" transform="translate(0 37.789)" fill="#ba0930"/>
      <path id="Path_52" data-name="Path 52" d="M102.976,74.076a100.754,100.754,0,0,0,4.008-20.851A101.8,101.8,0,0,0,104.255,19.9a33.951,33.951,0,0,1,44.4-1.856,34.662,34.662,0,0,1,7.707,44.8,69.94,69.94,0,0,0-35.282,2.067A68.431,68.431,0,0,0,102.976,74.076Z" transform="translate(82.247 8.521)" fill="#dd9023"/>
      <path id="Path_53" data-name="Path 53" d="M99.265,94.16a101.146,101.146,0,0,1,7.24,19.99,102.494,102.494,0,0,1,2.569,33.42,33.768,33.768,0,0,0,44.031-5.319,34.9,34.9,0,0,0,.523-45.587,69.5,69.5,0,0,1-35.077,3.643,68.072,68.072,0,0,1-19.286-6.144Z" transform="translate(79.283 75.206)" fill="#dd9023"/>
      <path id="Path_54" data-name="Path 54" d="M114.113,85.662a99.525,99.525,0,0,1,45.617,28.4,33.82,33.82,0,0,0-6.909-66.745A70.326,70.326,0,0,1,131.68,75.564a68.843,68.843,0,0,1-17.572,10.1Z" transform="translate(91.139 37.789)" fill="#ba0930"/>
    </g>
    <g id="smag_blomst" transform="translate(1190.656 1323.599)">
      <path id="Path_73" data-name="Path 73" d="M102.765,139.858c25.758,0,46.638-20.406,46.638-45.577S128.523,48.7,102.765,48.7,56.127,69.11,56.127,94.281,77.008,139.858,102.765,139.858Z" transform="translate(72.129 62.59)" fill="#dd9023"/>
      <path id="Path_74" data-name="Path 74" d="M90.565,91.223A126.6,126.6,0,0,1,88.916,22.4,44.218,44.218,0,0,0,31.7,20.043,43.611,43.611,0,0,0,21.768,76.96a91.352,91.352,0,0,1,45.46,2.626A88.652,88.652,0,0,1,90.565,91.223Z" transform="translate(19.671 13.709)" fill="#50a948"/>
      <path id="Path_75" data-name="Path 75" d="M97.72,94.16a127.55,127.55,0,0,0-12.626,67.854A43.591,43.591,0,0,1,27.735,97.342a90.578,90.578,0,0,0,45.157,4.628A88.48,88.48,0,0,0,97.72,94.165Z" transform="translate(22.056 121.006)" fill="#50a948"/>
      <path id="Path_76" data-name="Path 76" d="M99.695,90.094a123.191,123.191,0,0,1,13.614-22.839,127.653,127.653,0,0,1,30.663-29c-2.284-21-20.21-37.318-41.748-38.218C80.278-.876,60.71,14.488,57.055,35.709A89.991,89.991,0,0,1,89.731,66.624,84.738,84.738,0,0,1,99.7,90.089Z" transform="translate(73.321 0)" fill="#efedb7"/>
      <path id="Path_77" data-name="Path 77" d="M98.06,102.51a125.289,125.289,0,0,1-12.179,23.877,127.783,127.783,0,0,1-28.826,31.1c3.571,21.082,22.471,36.527,44.024,36.176,21.965-.363,40.546-17.026,42.893-38.689a90.655,90.655,0,0,1-34.515-29.329,86.519,86.519,0,0,1-11.392-23.13Z" transform="translate(73.321 131.736)" fill="#efedb7"/>
      <path id="Path_78" data-name="Path 78" d="M92.212,96.032a128.229,128.229,0,0,0-58.628,36.075C12.5,127.078-1.757,107.471.175,86.423c1.968-21.446,20.188-38.4,42.287-39.111A89.4,89.4,0,0,0,69.635,83.2,88.794,88.794,0,0,0,92.217,96.032Z" transform="translate(0 60.802)" fill="#efedb7"/>
      <path id="Path_79" data-name="Path 79" d="M102.976,91.223a128,128,0,0,0,5.091-26.489A129.327,129.327,0,0,0,104.6,22.4a43.132,43.132,0,0,1,56.412-2.357A44.035,44.035,0,0,1,170.8,76.96a88.853,88.853,0,0,0-44.822,2.626A86.936,86.936,0,0,0,102.976,91.223Z" transform="translate(132.335 13.709)" fill="#50a948"/>
      <path id="Path_80" data-name="Path 80" d="M99.265,94.16a128.5,128.5,0,0,1,9.2,25.4,130.211,130.211,0,0,1,3.263,42.457,42.9,42.9,0,0,0,55.937-6.757,44.335,44.335,0,0,0,.665-57.914,88.289,88.289,0,0,1-44.562,4.628,86.48,86.48,0,0,1-24.5-7.805Z" transform="translate(127.566 121.006)" fill="#50a948"/>
      <path id="Path_81" data-name="Path 81" d="M114.115,96.032a126.438,126.438,0,0,1,57.953,36.075,42.966,42.966,0,0,0-8.777-84.795A89.343,89.343,0,0,1,136.431,83.2a87.46,87.46,0,0,1-22.323,12.829Z" transform="translate(146.641 60.802)" fill="#efedb7"/>
    </g>
    <g id="by_blomst" transform="translate(1519.656 1223.599)">
      <path id="Path_55" data-name="Path 55" d="M93.779,122.293c20.795,0,37.652-16.474,37.652-36.8S114.574,48.7,93.779,48.7,56.127,65.177,56.127,85.5,72.985,122.293,93.779,122.293Z" transform="translate(47.416 41.144)" fill="#50a948"/>
      <path id="Path_56" data-name="Path 56" d="M76.063,75.7a101.95,101.95,0,0,1-4.168-21.385A102.978,102.978,0,0,1,74.732,20.14a35.7,35.7,0,0,0-46.192-1.9,35.208,35.208,0,0,0-8.018,45.95,73.747,73.747,0,0,1,36.7,2.12A71.57,71.57,0,0,1,76.063,75.7Z" transform="translate(12.931 9.013)" fill="#2b5ca4"/>
      <path id="Path_57" data-name="Path 57" d="M82.2,94.161A102.969,102.969,0,0,0,72,148.94,35.191,35.191,0,0,1,25.7,96.73a73.124,73.124,0,0,0,36.455,3.736,71.438,71.438,0,0,0,20.044-6.3Z" transform="translate(14.499 79.547)" fill="#2b5ca4"/>
      <path id="Path_58" data-name="Path 58" d="M91.477,72.734A99.463,99.463,0,0,1,102.468,54.3a103.06,103.06,0,0,1,24.755-23.412C125.379,13.932,110.908.758,93.519.031,75.8-.707,60,11.7,57.054,28.828a72.649,72.649,0,0,1,26.38,24.958A68.408,68.408,0,0,1,91.482,72.73Z" transform="translate(48.199 0)" fill="#d5d2d5"/>
      <path id="Path_59" data-name="Path 59" d="M90.158,102.51a101.147,101.147,0,0,1-9.832,19.276,103.161,103.161,0,0,1-23.272,25.1A35.465,35.465,0,0,0,92.6,176.1c17.733-.293,32.734-13.746,34.628-31.234a73.188,73.188,0,0,1-27.864-23.678,69.843,69.843,0,0,1-9.2-18.673Z" transform="translate(48.199 86.6)" fill="#d5d2d5"/>
      <path id="Path_60" data-name="Path 60" d="M74.444,86.644a103.52,103.52,0,0,0-47.331,29.124C10.093,111.707-1.418,95.878.141,78.886c1.589-17.314,16.3-31,34.139-31.575A71.15,71.15,0,0,0,74.448,86.644Z" transform="translate(0 39.969)" fill="#d5d2d5"/>
      <path id="Path_61" data-name="Path 61" d="M102.977,75.7a103.223,103.223,0,0,0,4.108-21.385,104.414,104.414,0,0,0-2.8-34.177,34.819,34.819,0,0,1,45.541-1.9,35.548,35.548,0,0,1,7.9,45.95,71.723,71.723,0,0,0-36.184,2.12A70.185,70.185,0,0,0,102.977,75.7Z" transform="translate(86.995 9.013)" fill="#2b5ca4"/>
      <path id="Path_62" data-name="Path 62" d="M99.265,94.161a103.861,103.861,0,0,1,7.425,20.5,105.121,105.121,0,0,1,2.634,34.276,34.633,34.633,0,0,0,45.159-5.455,35.792,35.792,0,0,0,.537-46.755,71.277,71.277,0,0,1-35.975,3.736,69.823,69.823,0,0,1-19.78-6.3Z" transform="translate(83.859 79.547)" fill="#2b5ca4"/>
      <path id="Path_63" data-name="Path 63" d="M114.114,86.644A102.075,102.075,0,0,1,160.9,115.767a34.687,34.687,0,0,0-7.086-68.456A72.127,72.127,0,0,1,132.13,76.287a70.606,70.606,0,0,1-18.022,10.357Z" transform="translate(96.398 39.969)" fill="#d5d2d5"/>
    </g>
  </g>
</svg>
