<svg width="62" height="58" viewBox="0 0 62 58" fill="none" xmlns="http://www.w3.org/2000/svg">
<path d="M45.0184 20.2294L44.9961 20.2205C44.9832 20.2158 44.9704 20.2117 44.9593 20.2009C44.922 20.1633 44.9055 20.1115 44.9144 20.0608L46.1519 12.9417L51.955 18.4038L45.9198 20.82C45.9033 20.8264 45.885 20.8295 45.8669 20.8288H45.8429C45.8349 20.8241 45.827 20.8182 45.8109 20.8032C45.5863 20.5679 45.3177 20.3734 45.0185 20.2293L45.0184 20.2294ZM53.4356 19.7955L59.6405 25.6342C60.9292 26.8483 61.5744 27.4539 61.8097 28.1559C61.8449 28.2598 61.8737 28.3637 61.8961 28.4707L47.0675 22.5612C47.0595 22.5581 47.0516 22.555 47.0435 22.5524C46.9842 22.5298 46.9154 22.5042 46.9154 22.4469C46.9154 22.3897 46.9858 22.3625 47.045 22.34L47.0643 22.3325L53.4356 19.7955ZM61.6432 30.3446C61.323 30.911 60.6987 31.4985 59.6421 32.4942L52.6464 39.0755L43.5984 37.3025L43.5504 37.2937C43.4703 37.2815 43.3855 37.2681 43.3855 37.2003C43.316 36.4903 42.9363 35.8394 42.337 35.4032C42.3001 35.3685 42.3097 35.3143 42.3211 35.2646C42.3211 35.2571 42.3211 35.2497 42.3243 35.2434L44.026 25.4129L44.0322 25.3797C44.0416 25.3044 44.0562 25.217 44.1283 25.217C44.8649 25.1308 45.5339 24.7699 45.9852 24.2153C45.9996 24.2004 46.0092 24.1837 46.0285 24.1746C46.0797 24.152 46.1405 24.1746 46.1933 24.1958L61.6416 30.3448L61.6432 30.3446ZM51.0376 40.5894L39.5339 51.4142L41.5029 40.026L41.5061 40.0111C41.5077 39.9962 41.5111 39.981 41.5155 39.9674C41.5314 39.9313 41.5731 39.9162 41.6131 39.9011L41.6324 39.8936C42.0635 39.7205 42.4448 39.4536 42.745 39.1148C42.7834 39.0727 42.8298 39.032 42.889 39.0244C42.9044 39.022 42.9201 39.022 42.9355 39.0244L51.0357 40.5911L51.0376 40.5894ZM37.099 53.7053L35.8023 54.9255L21.4667 35.4301C21.4615 35.423 21.4562 35.416 21.4508 35.4089C21.4285 35.3803 21.4044 35.3517 21.4092 35.3185C21.4092 35.2944 21.4269 35.2734 21.4444 35.2553L21.4603 35.2357C21.5035 35.1754 21.5404 35.1151 21.5803 35.0504L21.6124 34.9976L21.6174 34.9929C21.6399 34.9568 21.6606 34.9221 21.699 34.9025C21.7326 34.8876 21.779 34.8937 21.8159 34.901L37.6979 37.983C37.7423 37.9895 37.7842 38.0067 37.8195 38.0328C37.8404 38.0524 37.8452 38.0734 37.85 38.0976C38.0745 38.8971 38.6833 39.5519 39.4956 39.8675C39.5405 39.8887 39.5213 39.9353 39.5006 39.985C39.4903 40.0069 39.4821 40.0295 39.4766 40.0528C39.2765 41.1976 37.5604 51.0463 37.0994 53.705L37.099 53.7053ZM34.3903 56.2526C33.4346 57.1429 32.8711 57.6144 32.234 57.8042C31.6058 57.9911 30.9316 57.9911 30.3034 57.8042C29.5574 57.5812 28.9122 56.9757 27.6236 55.7615L13.2271 42.2148L16.9875 36.7271C17.0053 36.7 17.0228 36.6759 17.0516 36.6563C17.0915 36.6292 17.1492 36.6413 17.1972 36.6563C18.0603 36.9013 18.987 36.8571 19.8194 36.5312C19.8626 36.5163 19.9059 36.5056 19.9395 36.5342C19.9565 36.5484 19.9713 36.5648 19.9843 36.5824L34.3903 56.254L34.3903 56.2526ZM11.8392 40.9088L8.53665 37.8011L15.0585 35.1831C15.0751 35.1761 15.0931 35.1726 15.1113 35.1725C15.1658 35.1725 15.1978 35.2237 15.2266 35.2704C15.2921 35.3652 15.3616 35.4577 15.4347 35.5475L15.4556 35.5716C15.4748 35.5972 15.4618 35.6229 15.4427 35.647L11.8407 40.9087L11.8392 40.9088ZM7.07507 36.4258L2.89686 32.4942C2.18608 31.8254 1.67061 31.3403 1.31202 30.9231L14.0163 33.4025C14.0322 33.4053 14.0483 33.4079 14.0644 33.41C14.1428 33.4222 14.2293 33.4356 14.2293 33.5049C14.2293 33.5803 14.1348 33.6149 14.0548 33.6435L14.0179 33.6584L7.07507 36.4258ZM0.582031 28.9015C0.59657 28.6482 0.644924 28.3977 0.726097 28.1559C0.963023 27.4539 1.60656 26.8483 2.89685 25.6342L8.24368 20.6029C10.7055 23.965 13.174 27.3227 15.6492 30.676C15.6924 30.7302 15.7404 30.7905 15.6908 30.8357C15.4571 31.0782 15.2234 31.3433 15.0585 31.631C15.0406 31.668 15.0131 31.7002 14.9784 31.7244C14.9576 31.7366 14.9352 31.7319 14.9112 31.7274H14.908L0.582031 28.9V28.9015ZM9.67485 19.2562L16.8611 12.4912C17.5382 12.7698 19.9987 13.7475 22.1967 14.6212C23.8616 15.284 25.3792 15.8865 25.8562 16.0823C25.9042 16.1004 25.9475 16.1185 25.9683 16.1637C25.9812 16.1908 25.9745 16.2254 25.9683 16.2541C25.7371 17.246 26.0518 18.2809 26.8055 19.0077C26.8535 19.0529 26.8055 19.1177 26.7639 19.1734L26.7416 19.2051L19.4417 29.8445C19.4225 29.8746 19.4049 29.9003 19.3729 29.9199C19.3345 29.9425 19.28 29.932 19.2352 29.9214C18.9513 29.8514 18.6594 29.814 18.3659 29.8099C18.1034 29.8099 17.8185 29.8551 17.5303 29.9048H17.5287C17.4967 29.9095 17.4678 29.9154 17.4422 29.8973C17.4139 29.8755 17.3896 29.8496 17.3702 29.8205L9.67333 19.2563L9.67485 19.2562ZM18.3162 11.1249L27.6236 2.36687C28.9122 1.15424 29.5574 0.547176 30.3034 0.325739C30.9316 0.138816 31.6058 0.138816 32.234 0.325739C32.98 0.547176 33.6251 1.15424 34.9138 2.36687L36.9309 4.26489L30.3114 13.9117C30.2951 13.9397 30.2727 13.9643 30.2457 13.984C30.2057 14.0096 30.1497 13.9989 30.1017 13.984C29.0421 13.6814 27.8922 13.8899 27.028 14.5413C26.9848 14.5835 26.9208 14.5594 26.8664 14.5366C26.0019 14.1826 19.2783 11.5088 18.3162 11.1247L18.3162 11.1249ZM38.3364 5.58748L44.4485 11.3388L42.9757 19.9221V19.9447C42.9744 19.9643 42.9699 19.9835 42.9628 20.0019C42.9469 20.032 42.9148 20.0381 42.8827 20.0471C42.5678 20.1369 42.2712 20.2759 42.0054 20.4583C41.994 20.4662 41.9834 20.4746 41.9734 20.4839C41.9557 20.502 41.9382 20.5186 41.9094 20.5216C41.8859 20.5222 41.8626 20.5188 41.8406 20.511L32.5268 16.7873L32.5091 16.7798C32.4499 16.7572 32.3794 16.73 32.3794 16.6728C32.3247 16.1844 32.1552 15.7136 31.8831 15.2945C31.8383 15.2252 31.7887 15.1529 31.8271 15.0821L38.3364 5.58748ZM32.0419 18.5513L40.7729 22.031C40.8209 22.0522 40.8738 22.0716 40.8946 22.1183C40.903 22.1464 40.903 22.1761 40.8946 22.2042C40.869 22.3247 40.8466 22.4618 40.8466 22.6004V22.8309C40.8466 22.8881 40.7841 22.9122 40.7265 22.9348L40.7088 22.9407C39.3257 23.4966 21.2905 30.7331 21.2633 30.7331C21.2361 30.7331 21.2073 30.7331 21.18 30.7075C21.132 30.6624 21.18 30.5991 21.2233 30.5418C21.2311 30.5319 21.2382 30.5218 21.2456 30.5117L28.4206 20.0575L28.4335 20.0395C28.4751 19.9762 28.5232 19.9054 28.6 19.9054L28.672 19.916C28.8353 19.9371 28.9794 19.9566 29.1251 19.9566C30.2136 19.9566 31.2222 19.458 31.8305 18.6054C31.8451 18.5826 31.8634 18.5623 31.8849 18.5451C31.9282 18.515 31.9922 18.5302 32.0418 18.551L32.0419 18.5513ZM22.043 32.3872L41.7014 24.4984C41.7014 24.4984 41.7302 24.4984 41.7574 24.524C41.8647 24.6249 41.9559 24.6927 42.044 24.756L42.0872 24.7816C42.1272 24.8028 42.1673 24.8268 42.1704 24.866C42.1704 24.8809 42.1704 24.8901 42.1671 24.9036L40.483 34.6378L40.4767 34.6769C40.4655 34.7523 40.4544 34.8381 40.3791 34.8381C39.4676 34.896 38.6451 35.3734 38.1811 36.114L38.1732 36.1262C38.1509 36.1608 38.1299 36.194 38.0931 36.212C38.0595 36.227 38.0163 36.2209 37.981 36.2136L22.304 33.1707C22.2881 33.1677 22.0606 32.3889 22.043 32.3874L22.043 32.3872Z" fill="#F4F4F4"/>
</svg>
