<svg width="55" height="54" viewBox="0 0 55 54" fill="none" xmlns="http://www.w3.org/2000/svg">
<path d="M2.29164 2.29164H52.7085V51.3335H2.29164V2.29164ZM0 53.6252H55.0001V0H0V53.6252ZM37.0792 22C35.2688 22 34.6501 22.9167 34.6501 23.6729C34.6501 24.4979 35.0626 25.0708 37.4918 26.3313C41.0897 28.073 42.2126 29.7459 42.2126 32.198C42.2126 35.8646 39.4168 37.8355 35.6355 37.8355C33.6417 37.8355 31.9229 37.4229 30.9376 36.8501C30.7772 36.7814 30.7542 36.6668 30.7542 36.4834V33.1146C30.7542 32.8855 30.8688 32.8167 31.0293 32.9313C32.473 33.871 34.123 34.2834 35.6355 34.2834C37.4459 34.2834 38.2022 33.5272 38.2022 32.4959C38.2022 31.6709 37.6751 30.9376 35.3604 29.7459C32.1062 28.1875 30.7542 26.6063 30.7542 23.9709C30.7542 21.0146 33.0689 18.5625 37.0792 18.5625C39.0501 18.5625 40.4251 18.8605 41.1813 19.2042C41.3646 19.3188 41.4105 19.5021 41.4105 19.6625V22.802C41.4105 22.9853 41.2959 23.1 41.0667 23.0311C40.0584 22.3897 38.5688 22 37.0792 22ZM17.3708 24.7271C17.8979 24.773 18.3105 24.773 19.2271 24.773C21.9085 24.773 24.4293 23.8334 24.4293 20.1897C24.4293 17.2793 22.6188 15.8125 19.5709 15.8125C18.6543 15.8125 17.7834 15.8584 17.3708 15.8813V24.7271ZM13.2918 12.5583C13.2918 12.3979 13.6126 12.2833 13.7958 12.2833C15.2626 12.2145 17.4397 12.1687 19.7084 12.1687C26.0563 12.1687 28.5313 15.652 28.5313 20.0979C28.5313 25.9187 24.3146 28.4167 19.1355 28.4167C18.2647 28.4167 17.9668 28.3709 17.3479 28.3709V37.1709C17.3479 37.3542 17.2792 37.4459 17.073 37.4459H13.5667C13.3834 37.4459 13.2917 37.3771 13.2917 37.1709V12.5583H13.2918Z" fill="white"/>
</svg>
