<svg width="55" height="55" viewBox="0 0 55 55" fill="none" xmlns="http://www.w3.org/2000/svg">
<path d="M2.29164 2.35039H52.7084V52.6495H2.29164V2.35039ZM0 55H55V0H0V55ZM33 23.2222C33 22.9401 33 22.2586 32.8854 20.9422C32.8854 20.7542 32.9083 20.7072 33.0687 20.6367C34.4667 20.0491 37.7438 19.0149 41.4562 19.0149C41.6395 19.0149 41.7312 19.0619 41.7312 19.2499V22.6581C41.7312 22.8461 41.6624 22.8931 41.4791 22.8931C40.0353 22.8226 37.95 23.0106 37.1478 23.3631V38.1709C37.1478 38.3588 37.0791 38.4529 36.8728 38.4529H33.275C33.0917 38.4529 32.9999 38.3824 32.9999 38.1709V23.2222H33ZM18.3334 25.3611C18.8604 25.4081 19.2729 25.4081 20.1896 25.4081C22.8709 25.4081 25.3918 24.4444 25.3918 20.7073C25.3918 17.7223 23.6042 16.2179 20.5333 16.2179C19.6167 16.2179 18.7459 16.2649 18.3334 16.2884V25.3611ZM14.2771 12.8803C14.2771 12.7158 14.3229 12.5982 14.5062 12.5982C15.9729 12.5277 18.1271 12.4807 20.3959 12.4807C26.7438 12.4807 29.5167 16.0533 29.5167 20.6367C29.5167 26.6067 25.3 29.1687 20.1209 29.1687C19.25 29.1687 18.9521 29.1217 18.3334 29.1217V38.1474C18.3334 38.3354 18.2646 38.4294 18.0583 38.4294H14.5292C14.3458 38.4294 14.2541 38.3589 14.2541 38.1474V12.8803H14.2771Z" fill="white"/>
</svg>
