<svg width="62" height="67" viewBox="0 0 62 67" fill="none" xmlns="http://www.w3.org/2000/svg">
<path d="M57.1758 8.74667C50.4713 -0.0392464 37.2284 -2.64346 27.6547 2.94236L10.8415 12.7556C9.71046 13.4067 8.65528 14.1637 7.69525 15.0144C6.73402 15.8652 5.87276 16.8054 5.12474 17.8195C4.37671 18.8336 3.74552 19.9161 3.24082 21.0494C2.73734 22.1832 2.36353 23.3618 2.1254 24.5662C1.92665 25.5759 1.81824 26.5999 1.80379 27.6261C1.78813 28.6535 1.86642 29.6797 2.03627 30.6938C2.20611 31.709 2.46749 32.7099 2.81681 33.6854C3.16613 34.6608 3.60339 35.6076 4.12375 36.5169C3.76578 37.0153 3.43532 37.5298 3.13361 38.0585C2.83127 38.587 2.55904 39.1299 2.31693 39.6839C2.07481 40.2378 1.86401 40.8028 1.68454 41.3766C1.50506 41.9504 1.3581 42.532 1.24247 43.119C0.761973 45.5877 0.825454 48.1195 1.42917 50.5653C1.73031 51.7847 2.16274 52.9742 2.72165 54.1152C3.28057 55.2562 3.96114 56.3442 4.75614 57.3617C11.4607 66.1476 24.7023 68.7518 34.2761 63.166L51.0892 53.3935C52.2203 52.7414 53.2731 51.9833 54.2331 51.1314C55.193 50.2802 56.054 49.3401 56.8024 48.3263C57.5504 47.3134 58.1816 46.2308 58.6863 45.0976C59.191 43.9654 59.5656 42.7869 59.8053 41.583C60.0041 40.5733 60.1113 39.5504 60.1258 38.5241C60.1402 37.4979 60.0619 36.4716 59.8909 35.4575C59.721 34.4434 59.4596 33.4437 59.1091 32.4682C58.7586 31.4938 58.3213 30.5471 57.801 29.6378C58.1587 29.1401 58.49 28.6248 58.7923 28.0962C59.0935 27.5677 59.3669 27.0247 59.609 26.4708C59.8511 25.9168 60.0631 25.3519 60.2438 24.7781C60.4233 24.2053 60.5726 23.6238 60.6895 23.0368C60.928 21.8053 61.0316 20.555 61.0003 19.3048C60.9689 18.0545 60.8015 16.8109 60.5004 15.5905C60.1992 14.3711 59.7668 13.1816 59.2079 12.0406C58.6497 10.8994 57.969 9.81187 57.1758 8.79412" fill="#F4F4F4"/>
<path d="M26.0713 57.7512C24.7712 58.0638 23.4272 58.1908 22.0857 58.1279C20.7444 58.064 19.421 57.8129 18.1619 57.3801C16.9027 56.9479 15.7221 56.3407 14.6606 55.5793C13.6 54.8174 12.671 53.9105 11.9055 52.8897C11.433 52.2784 11.0284 51.6264 10.6976 50.9413C10.3657 50.2567 10.1086 49.5431 9.92994 48.8112C9.75261 48.0788 9.65264 47.332 9.63479 46.582C9.61694 45.8319 9.68001 45.0819 9.82283 44.3428C9.84544 44.2228 9.87162 44.1027 9.90018 43.9838C9.92756 43.8637 9.9585 43.7448 9.99182 43.6269C10.024 43.508 10.0597 43.3901 10.0977 43.2723C10.1346 43.1555 10.1751 43.0388 10.2168 42.9231L10.5298 42.0387L11.3831 42.628C11.8722 42.9584 12.3768 43.2701 12.8945 43.5609C13.4122 43.8527 13.943 44.1237 14.4857 44.3726C15.0272 44.6226 15.5817 44.8517 16.1447 45.0577C16.7076 45.2647 17.28 45.4486 17.8608 45.6106L18.4975 45.7813L18.4404 46.3705C18.4097 46.7715 18.4548 47.1744 18.5737 47.5611C18.632 47.755 18.7093 47.9422 18.8034 48.1228C18.8974 48.3035 19.0081 48.4764 19.1342 48.6394C19.3654 48.9468 19.6459 49.2198 19.9661 49.4489C20.285 49.678 20.6409 49.8608 21.0205 49.9908C21.4002 50.1208 21.7977 50.1957 22.2023 50.2144C22.6058 50.2342 23.0104 50.1957 23.4019 50.1009C23.4924 50.0789 23.5805 50.0536 23.6685 50.0249C23.7566 49.9963 23.8435 49.9655 23.928 49.9302C24.0136 49.8961 24.097 49.8586 24.1803 49.8179C24.2624 49.7782 24.3421 49.7353 24.4207 49.689L41.0072 39.8932C41.2105 39.7752 41.4 39.6379 41.5725 39.4835C41.745 39.3282 41.8986 39.1575 42.033 38.9735C42.1675 38.7896 42.2794 38.5925 42.3698 38.3865C42.4591 38.1805 42.5257 37.9669 42.5686 37.7488C42.6102 37.5252 42.6281 37.2994 42.6221 37.0725C42.6162 36.8468 42.5853 36.6221 42.5305 36.4007C42.477 36.1804 42.3984 35.9656 42.2972 35.7586C42.1973 35.5526 42.0735 35.3566 41.9307 35.1726C41.6998 34.8653 41.4201 34.5933 41.1 34.3642C40.7799 34.1351 40.424 33.9523 40.0456 33.8223C39.6663 33.6923 39.2678 33.6166 38.8638 33.5976C38.4592 33.5789 38.0545 33.6175 37.663 33.7111C37.5737 33.7331 37.4845 33.7584 37.3964 33.7871C37.3083 33.8157 37.2226 33.8466 37.1369 33.8807C37.0513 33.9159 36.968 33.9534 36.8858 33.9941C36.8037 34.0338 36.7228 34.0779 36.6442 34.1241L30.2748 37.8666C30.0154 38.0186 29.7488 38.1618 29.4774 38.2962C29.2049 38.4295 28.9288 38.5539 28.6467 38.6685C28.3647 38.783 28.0779 38.8876 27.7875 38.9813C27.4971 39.076 27.2031 39.1597 26.9056 39.2335C25.6072 39.5441 24.266 39.6696 22.9271 39.6057C21.5882 39.5419 20.2684 39.2896 19.0116 38.859C17.7549 38.4273 16.5767 37.8204 15.5175 37.0604C14.4583 36.3005 13.53 35.3962 12.7648 34.3774C12.2947 33.7662 11.8912 33.113 11.5616 32.428C11.2307 31.7429 10.9748 31.0292 10.7975 30.2979C10.6202 29.5654 10.5226 28.8187 10.5059 28.0686C10.4881 27.3197 10.5512 26.5696 10.6952 25.8317C10.9765 24.3788 11.5821 22.9962 12.4732 21.772C13.3649 20.5478 14.523 19.5094 15.8733 18.7233L32.511 8.92861C32.7693 8.77662 33.0335 8.63343 33.3036 8.49906C33.5738 8.3658 33.8499 8.24134 34.1296 8.12679C34.4098 8.0122 34.6949 7.90786 34.984 7.814C35.2721 7.71928 35.5648 7.63447 35.8612 7.56068C37.1607 7.24898 38.5044 7.12122 39.8444 7.184C41.1857 7.24788 42.5079 7.499 43.767 7.93185C45.0262 8.36359 46.2056 8.97156 47.2671 9.73263C48.3274 10.4949 49.256 11.4022 50.021 12.4233C50.4923 13.0335 50.8981 13.6855 51.2302 14.3706C51.5622 15.0557 51.8193 15.7683 51.999 16.5007C52.1775 17.2331 52.2775 17.9799 52.2953 18.7299C52.3144 19.48 52.2525 20.23 52.1097 20.9691C52.0847 21.0902 52.0585 21.2114 52.0287 21.3314C52.0002 21.4515 51.9692 21.5715 51.9359 21.6905C51.9038 21.8105 51.8681 21.9295 51.8312 22.0473C51.7943 22.1663 51.7562 22.2841 51.7146 22.4009L51.3968 23.2853L50.5494 22.696C50.0591 22.3623 49.5533 22.0495 49.0344 21.7555C48.5155 21.4625 47.9824 21.1893 47.4385 20.9371C46.3496 20.4344 45.217 20.0174 44.0527 19.6903L43.4148 19.5196L43.4731 18.9304C43.4909 18.7288 43.4897 18.5262 43.4695 18.3257C43.4505 18.1253 43.4112 17.9259 43.3541 17.731C43.2957 17.5371 43.2208 17.3466 43.1268 17.1648C43.0339 16.982 42.9232 16.808 42.7971 16.6428C42.5649 16.3409 42.2844 16.0735 41.9652 15.8498C41.6465 15.625 41.2925 15.4467 40.9155 15.3211C40.158 15.0668 39.3346 15.0326 38.5556 15.2231C38.4651 15.2451 38.3759 15.2704 38.289 15.298C38.2009 15.3266 38.114 15.3585 38.0283 15.3927C37.9438 15.4268 37.8593 15.4654 37.7772 15.505C37.6951 15.5458 37.6142 15.5887 37.5356 15.635L20.9182 25.4132C20.7159 25.531 20.5266 25.6687 20.3553 25.8229C20.1839 25.9771 20.0292 26.1478 19.8947 26.3306C19.7613 26.5145 19.6485 26.7105 19.5579 26.9155C19.4674 27.1214 19.4008 27.334 19.358 27.5521C19.3163 27.7757 19.2984 28.0026 19.3044 28.2294C19.3187 28.6836 19.4291 29.1308 19.6293 29.5456C19.7303 29.7521 19.8526 29.9491 19.9947 30.1338C20.2244 30.4377 20.5028 30.7087 20.8206 30.9356C21.1377 31.1635 21.4904 31.3455 21.8667 31.4753C22.6233 31.7356 23.4474 31.7774 24.2302 31.5953C24.3195 31.5722 24.4088 31.5468 24.4968 31.5182C24.5837 31.4896 24.6706 31.4576 24.7563 31.4235C24.8416 31.3892 24.9253 31.3517 25.0074 31.3111C25.0895 31.2715 25.1704 31.2285 25.249 31.1823L31.6184 27.4464C31.8791 27.2922 32.1445 27.1468 32.417 27.0124C32.6883 26.8769 32.9656 26.7525 33.2489 26.6368C33.5312 26.5222 33.8182 26.4179 34.1093 26.324C34.4009 26.2293 34.696 26.1456 34.9948 26.0729C36.2944 25.7601 37.6368 25.6324 38.978 25.694C40.3193 25.7568 41.6415 26.0079 42.9006 26.4397C44.1586 26.8714 45.3392 27.4783 46.3995 28.2405C47.4611 29.0015 48.3894 29.908 49.1546 30.929C49.6259 31.5402 50.0306 32.1923 50.3626 32.8773C50.6946 33.562 50.9522 34.2755 51.1314 35.0074C51.3099 35.7388 51.4099 36.4855 51.4289 37.2355C51.448 37.9867 51.3849 38.7367 51.2433 39.4747C51.1029 40.1992 50.8816 40.9083 50.5828 41.5905C50.2842 42.2728 49.9093 42.9243 49.4641 43.5344C49.0202 44.1446 48.5084 44.7107 47.9372 45.2229C47.3659 45.735 46.7387 46.191 46.0651 46.5831L29.4465 56.3778C29.1859 56.5309 28.9193 56.6752 28.6479 56.8095C28.3754 56.9439 28.0981 57.0684 27.8148 57.1829C27.5328 57.2986 27.246 57.4032 26.9544 57.4979C26.664 57.5926 26.3689 57.6774 26.0713 57.7512" fill="#9E3333"/>
</svg>
