<svg width="89" height="50" viewBox="0 0 89 50" fill="none" xmlns="http://www.w3.org/2000/svg">
<path d="M22.192 16.4627C25.1502 5.48824 32.5491 0 44.3841 0C62.1377 0 64.3569 12.347 73.2337 14.4048C79.1524 15.7774 84.3298 13.7196 88.7682 8.23133C85.81 19.2057 78.4111 24.694 66.5761 24.694C48.8225 24.694 46.6033 12.347 37.7265 10.2892C31.8079 8.91659 26.6305 10.9744 22.192 16.4627ZM0 41.1566C2.9582 30.1822 10.357 24.694 22.192 24.694C39.9457 24.694 42.1649 37.041 51.0417 39.0988C56.9603 40.4714 62.1377 38.4135 66.5761 32.9253C63.6179 43.8997 56.2191 49.388 44.3841 49.388C26.6305 49.388 24.4112 37.041 15.5344 34.9831C9.61581 33.6106 4.43841 35.6684 0 41.1566Z" fill="#F4F4F4"/>
</svg>
