<svg width="30" height="28" viewBox="0 0 30 28" fill="none" xmlns="http://www.w3.org/2000/svg">
<path d="M27.2863 0.893555H2.71374C1.215 0.893555 0 1.96566 0 3.28814V24.9707C0 26.2932 1.215 27.3653 2.71374 27.3653H27.2862C28.785 27.3653 30 26.2932 30 24.9707V3.28814C30 1.96566 28.785 0.893555 27.2863 0.893555ZM9.28327 23.751C9.28327 24.1359 8.92971 24.4479 8.49353 24.4479H5.13181C4.69563 24.4479 4.34207 24.1359 4.34207 23.751V11.3162C4.34207 10.9313 4.69563 10.6193 5.13181 10.6193H8.49353C8.92971 10.6193 9.28327 10.9313 9.28327 11.3162V23.751ZM6.81267 9.44713C5.04887 9.44713 3.61901 8.18542 3.61901 6.62906C3.61901 5.0727 5.04887 3.81099 6.81267 3.81099C8.57647 3.81099 10.0063 5.0727 10.0063 6.62906C10.0063 8.18542 8.57654 9.44713 6.81267 9.44713ZM26.8516 23.8072C26.8516 24.161 26.5264 24.4479 26.1254 24.4479H22.5181C22.1171 24.4479 21.7919 24.161 21.7919 23.8072V17.9745C21.7919 17.1044 22.0812 14.1617 19.215 14.1617C16.9918 14.1617 16.5408 16.1759 16.4503 17.0798V23.8072C16.4503 24.161 16.1252 24.4479 15.7242 24.4479H12.2352C11.8342 24.4479 11.5091 24.161 11.5091 23.8072V11.26C11.5091 10.9062 11.8342 10.6193 12.2352 10.6193H15.7242C16.1252 10.6193 16.4503 10.9062 16.4503 11.26V12.3449C17.2747 11.2532 18.4998 10.4106 21.1083 10.4106C26.8846 10.4106 26.8516 15.1725 26.8516 17.7889V23.8072Z" fill="#902B2B"/>
</svg>
