<svg width="71" height="65" viewBox="0 0 71 65" fill="none" xmlns="http://www.w3.org/2000/svg">
<path d="M21.2445 19.9101H17.3496L27.9683 47.3666L33.9129 31.8277L29.304 19.9101H25.1944V17.2939H43.3927V19.9101H39.1311L49.7497 47.3666L53.5666 37.3891C58.5737 24.606 49.4628 20.6241 49.4628 17.7712C49.4628 14.9184 51.9911 12.6058 55.1098 12.6058C55.2786 12.6058 55.4424 12.6142 55.6029 12.6279C50.3186 8.06483 43.1931 5.2666 35.3524 5.2666C25.1075 5.2666 16.0832 10.0433 10.793 17.2939H21.2442V19.9101H21.2445Z" fill="#F4F4F4"/>
<path d="M5.84473 32.2573C5.84473 42.5907 12.1943 51.5663 21.5182 56.1018L8.20214 21.6707C6.68525 24.9213 5.84473 28.4994 5.84473 32.2573Z" fill="#F4F4F4"/>
<path d="M61.0324 18.9573C61.4545 21.2305 61.3267 23.7855 60.679 26.3504H60.7964L60.3502 27.5165C60.0858 28.3586 59.7529 29.2199 59.3748 30.0663L49.2217 56.0845C58.5261 51.5435 64.8594 42.5776 64.8594 32.2573C64.8594 27.4213 63.4676 22.883 61.0324 18.9573Z" fill="#F4F4F4"/>
<path d="M26.252 57.9377C29.1186 58.7871 32.1763 59.2478 35.3523 59.2478C38.3817 59.2478 41.3041 58.8296 44.0552 58.0539L35.424 35.7363L26.252 57.9377Z" fill="#F4F4F4"/>
<path d="M60.2887 9.448C53.628 3.35537 44.772 0 35.3522 0C25.9325 0 17.0766 3.35537 10.4159 9.448C3.75514 15.5406 0.0869141 23.6412 0.0869141 32.2577C0.0869141 40.874 3.75514 48.9746 10.4159 55.0672C17.0766 61.1598 25.9326 64.5152 35.3524 64.5152C44.7721 64.5152 53.628 61.1598 60.2889 55.0672C66.9496 48.9746 70.6178 40.8739 70.6178 32.2577C70.6177 23.6412 66.9494 15.5406 60.2887 9.448ZM35.3522 62.2397C17.2786 62.2397 2.57462 48.7898 2.57462 32.2577C2.57462 15.7255 17.2786 2.27553 35.3522 2.27553C53.4259 2.27553 68.1298 15.7255 68.1298 32.2577C68.1298 48.7898 53.426 62.2397 35.3522 62.2397Z" fill="#F4F4F4"/>
</svg>
