<svg width="55" height="55" viewBox="0 0 55 55" fill="none" xmlns="http://www.w3.org/2000/svg">
<path d="M0 0V55H55V0H0ZM2.29167 2.35043H52.7083V52.6496H2.29167V2.35043Z" fill="white"/>
<path d="M39.9443 23.1043C39.6006 22.9397 39.1651 22.8692 38.6151 22.8692C35.7276 22.8692 33.8026 25.1491 33.8026 28.9333C33.8026 33.2581 35.7735 34.9974 38.3401 34.9974C38.8901 34.9974 39.486 34.9269 39.9214 34.7389V23.1043H39.9443ZM29.6776 29.1214C29.6776 23.6449 33.1151 19.3671 38.7526 19.3671C39.2339 19.3671 39.486 19.3671 39.9443 19.4141V13.303C39.9443 13.162 40.0589 13.0679 40.1735 13.0679H43.8631C44.0464 13.0679 44.0922 13.1385 44.0922 13.256V34.7389C44.0922 35.3735 44.0922 36.1726 44.2068 37.0423C44.2068 37.2068 44.2068 37.2303 44.0693 37.3008C42.1443 38.241 40.1276 38.6641 38.2026 38.6641C33.2297 38.6641 29.6776 35.5145 29.6776 29.1214V29.1214ZM21.8631 25.3137L28.2797 38.0765C28.3943 38.2645 28.3256 38.4526 28.1422 38.4526H24.1547C23.9026 38.4526 23.7881 38.382 23.6735 38.147C22.2068 35.0444 20.7172 31.8243 19.1818 28.4867H19.136C17.761 31.6363 16.2485 35.0679 14.7818 38.1705C14.6672 38.3585 14.5526 38.4291 14.3693 38.4291H10.5651C10.336 38.4291 10.3131 38.241 10.4276 38.1L16.7068 25.7132L10.6339 13.397C10.4964 13.209 10.6339 13.0444 10.7943 13.0444H14.736C14.9651 13.0444 15.0797 13.0914 15.1485 13.303C16.5922 16.429 18.0589 19.5081 19.4339 22.6577H19.4797C20.8089 19.5551 22.2756 16.429 23.6735 13.35C23.7881 13.162 23.8568 13.0444 24.086 13.0444H27.7756C27.9589 13.0444 28.0276 13.1855 27.9131 13.397L21.8631 25.3137V25.3137Z" fill="white"/>
</svg>
